<svg width="98" height="58" viewBox="0 0 98 58" fill="none" xmlns="http://www.w3.org/2000/svg">
<path d="M43.3442 2H33.0763L31.0451 15.5875H22.2641L24.2728 2.01104H14.0048L11.9961 15.5875H2.9345V24.6274H10.6607L9.06722 35.3671H0V44.4236H7.73182L5.71751 58H15.9855L17.9998 44.4236H26.7977L24.789 58H35.0569L37.0656 44.4236H46.0431V35.3781H38.4066L40.0226 24.6274H49V15.5764H41.3355L43.3442 2ZM28.1387 35.3671H19.3352L20.9455 24.6274H29.7434L28.1387 35.3671Z" fill="#EFEFEF"/>
<path d="M96.6409 16.2513C95.8156 13.1717 94.4022 10.2751 92.4764 7.71658C90.5985 5.26731 88.1399 3.30869 85.3156 2.01209C82.0858 0.602693 78.5783 -0.0819091 75.0468 0.00780562C71.0723 -0.0737403 67.1367 0.793397 63.5762 2.53518C60.3431 4.14227 57.6434 6.62578 55.795 9.69333C53.9317 12.7842 53 16.4201 53 20.6012C53 24.4777 53.7453 27.82 55.236 30.6282C56.6934 33.3667 58.9266 35.6296 61.6645 37.1421C64.6487 38.7575 68.0149 39.5632 71.419 39.4767C74.4538 39.5397 77.4596 38.8844 80.184 37.566C82.2117 36.5494 83.9547 35.0575 85.2597 33.2216C85.1032 35.0621 84.7376 36.8796 84.1697 38.6398C83.4373 40.9847 81.8425 42.9759 79.6977 44.2231C77.5772 45.4492 74.6425 46.0622 70.8935 46.0622C68.9426 46.0622 66.9805 45.9962 64.9737 45.8695C62.9669 45.7429 61.1781 45.5997 59.5682 45.451V57.3886C61.2228 57.5942 63.0005 57.7483 64.9011 57.8511C66.8016 57.9539 68.6538 58.0035 70.4575 57.9998C79.5654 57.9998 86.4336 55.6523 91.0621 50.9573C95.6906 46.2623 98.003 39.1904 97.9993 29.7416V26.6802C98.021 23.1597 97.5642 19.6523 96.6409 16.2513ZM83.5212 25.0613C82.651 26.3069 81.4338 27.2782 80.0163 27.8585C78.5118 28.4774 76.8952 28.7883 75.2648 28.7725C73.5699 28.8202 71.8893 28.4532 70.3736 27.7043C69.0612 27.0396 67.9707 26.017 67.2321 24.7585C66.4617 23.3888 66.0758 21.8417 66.1141 20.2764C66.0767 18.7251 66.4628 17.1924 67.2321 15.8383C67.9918 14.5613 69.1073 13.5256 70.4463 12.8539C72.0099 12.0995 73.737 11.7328 75.4773 11.7857C77.2321 11.7312 78.974 12.0978 80.553 12.8539C81.8869 13.5206 82.9928 14.5583 83.7337 15.8383C84.491 17.197 84.8763 18.7265 84.8517 20.2764C84.9167 21.9645 84.4522 23.6314 83.5212 25.0503V25.0613Z" fill="#EFEFEF"/>
</svg>
