<svg width="568" height="435" viewBox="0 0 568 435" fill="none" xmlns="http://www.w3.org/2000/svg">
<path d="M397.644 161.728V340.004L293.627 59.0987H180.606L64.7852 370.707H165.807L181.69 322.978H291.594L307.447 370.707H494.013V161.773L397.644 161.728ZM204.8 252.681L236.687 156.009L268.59 252.681H204.8Z" fill="#FFFCF2"/>
<path d="M514.728 103.761L411.794 150.779L376.926 79.2224L479.965 32.1752L514.728 103.761Z" fill="#2FCE58"/>
<path d="M494 21.4008V434.401" stroke="#FFFCF2"/>
<path d="M398 161.401L398 434.401" stroke="#FFFCF2"/>
<path d="M65 21.4008V434.401" stroke="#FFFCF2"/>
<path d="M568 371.401L1.37091e-05 371.401" stroke="#FFFCF2"/>
<path d="M568 387L1.37091e-05 387" stroke="#FFFCF2"/>
<path d="M568 59.4008L1.37091e-05 59.4008" stroke="#FFFCF2"/>
<path d="M568 44L1.37091e-05 44" stroke="#FFFCF2"/>
<path d="M466 0.400757L529 133.401" stroke="#FFFCF2"/>
<path d="M405.283 154.206L539.467 92.7435" stroke="#FFFCF2"/>
<path d="M271.191 0.536338L424.87 414.106" stroke="#FFFCF2"/>
<path d="M189.082 11.8357L326.939 428.419" stroke="#FFFCF2"/>
</svg>
