<svg width="104" height="29" viewBox="0 0 104 29" fill="none" xmlns="http://www.w3.org/2000/svg">
<path d="M6.63994 28.144V21.88H10.9599C12.0879 21.88 13.0959 21.724 13.9839 21.412C14.8959 21.076 15.6639 20.608 16.2879 20.008C16.9119 19.384 17.3919 18.64 17.7279 17.776C18.0639 16.888 18.2319 15.892 18.2319 14.788C18.2319 13.636 18.0639 12.628 17.7279 11.764C17.3919 10.876 16.9119 10.144 16.2879 9.56798C15.6639 8.96798 14.8959 8.52398 13.9839 8.23598C13.0959 7.92398 12.0879 7.76798 10.9599 7.76798H6.63994V1.50398H10.6719C13.0479 1.50398 15.1239 1.83998 16.8999 2.51198C18.6999 3.18398 20.1999 4.11998 21.3999 5.31998C22.5999 6.49598 23.4999 7.86398 24.0999 9.42398C24.6999 10.984 24.9999 12.64 24.9999 14.392V15.184C24.9999 16.792 24.6999 18.376 24.0999 19.936C23.4999 21.472 22.5999 22.864 21.3999 24.112C20.1999 25.336 18.6999 26.32 16.8999 27.064C15.1239 27.784 13.0479 28.144 10.6719 28.144H6.63994ZM0.66394 28.144V1.50398H7.35994V28.144H0.66394Z" fill="#FFFCF2"/>
<path d="M26.8835 28V1.50398H33.5795V28H26.8835ZM42.7235 28L35.3435 16.84H42.6155L50.4275 28H42.7235ZM31.8875 19.936V14.788H38.1875C38.9795 14.788 39.6635 14.632 40.2395 14.32C40.8155 14.008 41.2595 13.564 41.5715 12.988C41.9075 12.412 42.0755 11.74 42.0755 10.972C42.0755 10.18 41.9075 9.49598 41.5715 8.91998C41.2595 8.34398 40.8155 7.89998 40.2395 7.58798C39.6635 7.27598 38.9795 7.11998 38.1875 7.11998H31.8875V1.50398H37.7915C40.0715 1.50398 42.0395 1.85198 43.6955 2.54798C45.3515 3.21998 46.6235 4.22798 47.5115 5.57198C48.3995 6.89198 48.8435 8.53598 48.8435 10.504V11.08C48.8435 13.048 48.3875 14.692 47.4755 16.012C46.5875 17.308 45.3155 18.292 43.6595 18.964C42.0275 19.612 40.0715 19.936 37.7915 19.936H31.8875Z" fill="#FFFCF2"/>
<path d="M49.3559 28L57.7799 1.71998H68.5079L77.2199 28H70.3079L63.5399 6.39998L65.4479 7.11998H60.6959L62.6399 6.39998L56.0519 28H49.3559ZM56.2319 21.916L58.2479 16.444H68.2199L70.2359 21.916H56.2319Z" fill="#FFFCF2"/>
<path d="M89.886 28.72C87.414 28.72 85.29 28.312 83.514 27.496C81.738 26.656 80.286 25.564 79.158 24.22C78.03 22.876 77.202 21.412 76.674 19.828C76.146 18.244 75.882 16.696 75.882 15.184V14.392C75.882 12.76 76.158 11.152 76.71 9.56798C77.262 7.95998 78.09 6.50798 79.194 5.21198C80.322 3.91598 81.726 2.88398 83.406 2.11598C85.086 1.32398 87.054 0.927979 89.31 0.927979C91.734 0.927979 93.87 1.37198 95.718 2.25998C97.59 3.14798 99.09 4.38398 100.218 5.96798C101.346 7.52798 102.006 9.33998 102.198 11.404H95.502C95.358 10.612 95.01 9.90398 94.458 9.27998C93.906 8.63198 93.186 8.12798 92.298 7.76798C91.434 7.38398 90.438 7.19198 89.31 7.19198C88.23 7.19198 87.27 7.38398 86.43 7.76798C85.614 8.12798 84.918 8.65598 84.342 9.35198C83.79 10.024 83.37 10.828 83.082 11.764C82.794 12.7 82.65 13.72 82.65 14.824C82.65 15.928 82.806 16.96 83.118 17.92C83.43 18.856 83.886 19.684 84.486 20.404C85.086 21.1 85.842 21.64 86.754 22.024C87.666 22.408 88.71 22.6 89.886 22.6C91.374 22.6 92.658 22.288 93.738 21.664C94.818 21.04 95.574 20.212 96.006 19.18L95.502 23.14V17.416H101.622V22.816C100.518 24.712 98.946 26.176 96.906 27.208C94.89 28.216 92.55 28.72 89.886 28.72ZM89.166 18.712V14.032H103.782V18.712H89.166Z" fill="#FFFCF2"/>
</svg>
