<svg width="856" height="105" viewBox="0 0 856 105" fill="none" xmlns="http://www.w3.org/2000/svg">
<g clip-path="url(#clip0_33_1910)">
<path d="M188.845 6.05208V36.43C188.845 36.43 188.845 36.43 188.822 36.4073C188.305 35.9018 179.965 27.4592 167.629 27.4592C160.627 27.4592 155.398 28.8253 151.092 31.3435C146.509 34.0257 142.941 36.9537 140.209 41.3025C140.188 41.3296 140.169 41.3586 140.154 41.3891C139.299 42.8029 138.544 44.2726 137.892 45.788C137.86 45.8563 137.832 45.9246 137.804 45.9974C136.339 49.4759 135.318 53.1212 134.768 56.849C134.768 56.849 134.768 56.849 134.768 56.8809C134.304 59.895 134.076 62.9397 134.084 65.9883C134.084 77.91 137.315 87.0038 143.463 94.135C146.25 97.4147 149.737 100.046 153.676 101.839C157.615 103.632 161.906 104.544 166.244 104.508C169.703 104.553 173.143 103.984 176.398 102.828V102.864C176.398 102.864 184.244 99.7178 188.887 95.5785V103.948H218.074V6.04297L188.845 6.05208ZM188.845 65.8153C188.821 68.6119 187.996 71.3448 186.466 73.699C184.935 76.0532 182.762 77.9328 180.196 79.1213C178.201 80.0589 176.018 80.5429 173.809 80.5375C170.938 80.5336 168.128 79.7178 165.712 78.1867C163.297 76.6557 161.376 74.4736 160.179 71.8989C158.982 69.3242 158.558 66.4648 158.957 63.6596C159.356 60.8544 160.562 58.2208 162.431 56.0709C164.301 53.921 166.756 52.3449 169.505 51.5293C172.255 50.7137 175.183 50.6928 177.945 51.469C180.706 52.2452 183.184 53.7861 185.085 55.9091C186.985 58.032 188.23 60.6481 188.67 63.4473C188.67 63.6158 188.721 63.7843 188.73 63.9528C188.739 64.1213 188.771 64.267 188.785 64.4082C188.785 64.4082 188.785 64.4082 188.785 64.4401C188.785 64.6814 188.818 64.9364 188.836 65.1823C188.836 65.3508 188.836 65.5193 188.836 65.6878L188.845 65.8153Z" fill="#FFFCF2"/>
<path d="M275.586 28.0054V36.4298C275.586 36.4298 275.586 36.4298 275.563 36.4071C275.073 35.9016 266.701 27.459 254.365 27.459C247.363 27.459 242.138 28.8251 237.828 31.3433C233.245 34.0255 229.682 36.9535 226.949 41.3023C226.927 41.3293 226.907 41.3583 226.889 41.3889C226.037 42.8028 225.283 44.2725 224.633 45.7878C224.597 45.8555 224.566 45.9255 224.54 45.9972C223.072 49.4758 222.047 53.1209 221.49 56.8488C221.49 56.8488 221.49 56.8488 221.49 56.8807C221.024 59.8945 220.796 62.9395 220.806 65.9881C220.806 77.9098 224.037 87.0036 230.185 94.1348C232.971 97.4139 236.458 100.044 240.396 101.838C244.334 103.631 248.625 104.543 252.961 104.508C256.421 104.552 259.86 103.983 263.115 102.828V102.864C263.115 102.864 270.961 99.7176 275.604 95.5783V103.948H304.833V28.0054H275.586ZM275.586 65.8014C275.56 68.5978 274.735 71.3303 273.205 73.6843C271.675 76.0383 269.502 77.9181 266.937 79.1074C264.942 80.045 262.759 80.529 260.549 80.5236C257.676 80.5216 254.865 79.7071 252.447 78.1765C250.029 76.6459 248.107 74.4634 246.908 71.8879C245.709 69.3123 245.284 66.4515 245.682 63.6447C246.081 60.8378 247.287 58.2026 249.157 56.0513C251.027 53.8999 253.483 52.3227 256.234 51.5066C258.985 50.6905 261.915 50.6697 264.678 51.4466C267.44 52.2236 269.919 53.7657 271.821 55.8902C273.722 58.0147 274.966 60.6326 275.406 63.4335C275.406 63.602 275.457 63.7705 275.47 63.9389C275.484 64.1074 275.512 64.2532 275.521 64.3943C275.521 64.3943 275.521 64.3943 275.521 64.4262C275.521 64.6675 275.553 64.9226 275.572 65.1685C275.572 65.3369 275.572 65.5054 275.572 65.6739L275.586 65.8014Z" fill="#FFFCF2"/>
<path d="M795.613 51.0018C794.79 48.6423 793.688 46.3864 792.332 44.2804C788.735 38.6367 783.596 34.1096 777.507 31.2203C771.196 28.2583 764.285 26.748 757.297 26.8032C749.395 26.8032 742.186 28.479 735.863 31.7759C729.691 34.9272 724.511 39.6865 720.886 45.5373C720.061 46.8704 719.328 48.2563 718.689 49.6857C717.944 47.8048 717.017 45.9992 715.92 44.2941C712.323 38.6513 707.184 34.1245 701.096 31.234C694.784 28.272 687.874 26.7617 680.885 26.8169C672.984 26.8169 665.775 28.4927 659.452 31.7896C653.279 34.9364 648.098 39.691 644.47 45.5373C640.847 51.3843 639.006 58.1921 639.006 65.7695C639.006 73.1784 640.852 79.9225 644.544 85.8059C648.236 91.6894 653.452 96.3888 660.139 99.7722C666.827 103.156 674.751 104.877 683.77 104.877C691.154 104.877 697.574 103.834 702.794 101.78C707.674 99.9053 712.07 96.9844 715.666 93.2285L700.283 77.4134C698.203 78.9898 695.938 80.3123 693.536 81.3524C691.196 82.3314 688.311 82.8005 684.716 82.8005C681.241 82.8005 678.254 82.1903 675.79 80.979C673.33 79.7771 671.312 77.8456 670.021 75.4553C669.659 74.797 669.351 74.1119 669.098 73.4061L668.798 72.5546H715.98C716.746 77.2484 718.436 81.7488 720.955 85.8014C724.615 91.6803 729.863 96.3843 736.551 99.7677C743.238 103.151 751.163 104.872 760.181 104.872C767.566 104.872 773.986 103.83 779.206 101.776C784.085 99.9008 788.482 96.9798 792.078 93.224L776.699 77.4134C774.619 78.9898 772.354 80.3123 769.952 81.3524C767.616 82.3314 764.727 82.8005 761.137 82.8005C757.657 82.8005 754.675 82.1903 752.206 80.979C749.746 79.7771 747.728 77.8456 746.437 75.4553C746.073 74.798 745.765 74.1127 745.514 73.4061L745.209 72.5546H797.57C797.639 71.6074 797.713 70.5692 797.782 69.4535C797.879 68.1784 797.93 66.9489 797.93 65.7741C798.002 60.7567 797.218 55.7631 795.613 51.0018ZM668.262 58.5564L668.405 57.805C668.638 56.5209 669.038 55.2719 669.596 54.0892C670.576 51.9678 672.16 50.1735 674.156 48.9253C676.262 47.6578 678.692 47.013 681.158 47.0673C683.6 47.0103 686.006 47.6576 688.081 48.9298C690.04 50.2099 691.614 51.9875 692.636 54.0755C693.207 55.2577 693.626 56.5061 693.882 57.7914L694.034 58.5564H668.262ZM744.678 58.5564L744.821 57.805C745.054 56.5209 745.454 55.2719 746.012 54.0892C746.992 51.9678 748.576 50.1735 750.572 48.9253C752.678 47.6578 755.108 47.013 757.574 47.0673C760.016 47.0103 762.422 47.6576 764.497 48.9298C766.457 50.2088 768.031 51.9867 769.052 54.0755C769.623 55.2577 770.042 56.5061 770.298 57.7914L770.45 58.5564H744.678Z" fill="#FFFCF2"/>
<path d="M102.04 39.8131V94.5991L70.153 8.27393H35.5057L0 104.034H30.9688L35.838 89.3668H69.5299L74.3898 104.034H131.583V39.8267L102.04 39.8131ZM42.9225 67.7639L52.6978 38.0553L62.4777 67.7639H42.9225Z" fill="#FFFCF2"/>
<path d="M424.379 18.7069C417.507 11.8763 407.764 8.27881 396.226 8.27881H353.802V104.035H383.34V79.7497H396.217C410.524 79.7497 419.409 73.511 424.37 68.2788C430.689 61.5541 434.224 52.736 434.275 43.5657C434.265 33.8571 430.758 25.0457 424.379 18.7069ZM392.764 57.0402H383.344V31.4209H392.764C399.9 31.4209 404.303 37.7369 404.303 43.5885C404.303 49.0712 400.186 57.0402 392.764 57.0402Z" fill="#FFFCF2"/>
<path d="M856 27.4771V58.6701H847.9C835.406 58.6701 830.311 62.8277 830.311 73.0144V104.039H800.773V27.9916H830.311V41.325C839.496 27.4771 856 27.4771 856 27.4771Z" fill="#FFFCF2"/>
<path d="M510.307 27.0537C487.651 27.0537 469.231 44.54 469.231 66.0291C469.231 87.5182 487.669 105 510.307 105C532.946 105 551.411 87.5136 551.411 66.0291C551.411 44.5446 532.973 27.0537 510.307 27.0537ZM510.307 80.6557C507.374 80.6557 504.507 79.7975 502.068 78.1896C499.63 76.5817 497.729 74.2964 496.607 71.6226C495.484 68.9489 495.191 66.0068 495.764 63.1685C496.336 60.3302 497.749 57.7232 499.823 55.6772C501.898 53.6312 504.54 52.238 507.417 51.674C510.294 51.11 513.276 51.4004 515.985 52.5085C518.695 53.6166 521.011 55.4926 522.64 57.8992C524.268 60.3059 525.137 63.1352 525.136 66.0291C525.132 69.9076 523.568 73.6259 520.787 76.368C518.007 79.1101 514.238 80.6521 510.307 80.6557Z" fill="#FFFCF2"/>
<path d="M466.43 39.8086H436.887V104.034H466.43V39.8086Z" fill="#FFFBED"/>
<path d="M479.126 21.9991L447.576 36.4481L436.887 14.4581L468.474 0L479.126 21.9991Z" fill="#25CE51"/>
<path d="M137.934 21.9991L106.379 36.4481L95.6896 14.4581L127.277 0L137.934 21.9991Z" fill="#25CE51"/>
<path d="M636.218 59.8588V104.03H606.819V63.6839C606.819 56.0564 602.259 51.1293 595.197 51.1293C588.034 51.1293 583.576 55.9426 583.576 63.6839V104.03H554.038V27.9826H583.576V39.162C590.208 30.5874 600.463 28.397 601.372 28.2331H601.437C603.676 27.752 605.962 27.5138 608.254 27.5227C625.501 27.4726 636.218 39.8815 636.218 59.8588Z" fill="#FFFCF2"/>
</g>
<defs>
<clipPath id="clip0_33_1910">
<rect width="856" height="105" fill="white"/>
</clipPath>
</defs>
</svg>
