<svg width="164" height="160" viewBox="0 0 164 160" fill="none" xmlns="http://www.w3.org/2000/svg">
<path d="M37.14 92.144V85.88H41.46C42.588 85.88 43.596 85.724 44.484 85.412C45.396 85.076 46.164 84.608 46.788 84.008C47.412 83.384 47.892 82.64 48.228 81.776C48.564 80.888 48.732 79.892 48.732 78.788C48.732 77.636 48.564 76.628 48.228 75.764C47.892 74.876 47.412 74.144 46.788 73.568C46.164 72.968 45.396 72.524 44.484 72.236C43.596 71.924 42.588 71.768 41.46 71.768H37.14V65.504H41.172C43.548 65.504 45.624 65.84 47.4 66.512C49.2 67.184 50.7 68.12 51.9 69.32C53.1 70.496 54 71.864 54.6 73.424C55.2 74.984 55.5 76.64 55.5 78.392V79.184C55.5 80.792 55.2 82.376 54.6 83.936C54 85.472 53.1 86.864 51.9 88.112C50.7 89.336 49.2 90.32 47.4 91.064C45.624 91.784 43.548 92.144 41.172 92.144H37.14ZM31.164 92.144V65.504H37.86V92.144H31.164ZM57.3835 92V65.504H64.0795V92H57.3835ZM73.2235 92L65.8435 80.84H73.1155L80.9275 92H73.2235ZM62.3875 83.936V78.788H68.6875C69.4795 78.788 70.1635 78.632 70.7395 78.32C71.3155 78.008 71.7595 77.564 72.0715 76.988C72.4075 76.412 72.5755 75.74 72.5755 74.972C72.5755 74.18 72.4075 73.496 72.0715 72.92C71.7595 72.344 71.3155 71.9 70.7395 71.588C70.1635 71.276 69.4795 71.12 68.6875 71.12H62.3875V65.504H68.2915C70.5715 65.504 72.5395 65.852 74.1955 66.548C75.8515 67.22 77.1235 68.228 78.0115 69.572C78.8995 70.892 79.3435 72.536 79.3435 74.504V75.08C79.3435 77.048 78.8875 78.692 77.9755 80.012C77.0875 81.308 75.8155 82.292 74.1595 82.964C72.5275 83.612 70.5715 83.936 68.2915 83.936H62.3875ZM79.856 92L88.28 65.72H99.008L107.72 92H100.808L94.04 70.4L95.948 71.12H91.196L93.14 70.4L86.552 92H79.856ZM86.732 85.916L88.748 80.444H98.72L100.736 85.916H86.732ZM120.386 92.72C117.914 92.72 115.79 92.312 114.014 91.496C112.238 90.656 110.786 89.564 109.658 88.22C108.53 86.876 107.702 85.412 107.174 83.828C106.646 82.244 106.382 80.696 106.382 79.184V78.392C106.382 76.76 106.658 75.152 107.21 73.568C107.762 71.96 108.59 70.508 109.694 69.212C110.822 67.916 112.226 66.884 113.906 66.116C115.586 65.324 117.554 64.928 119.81 64.928C122.234 64.928 124.37 65.372 126.218 66.26C128.09 67.148 129.59 68.384 130.718 69.968C131.846 71.528 132.506 73.34 132.698 75.404H126.002C125.858 74.612 125.51 73.904 124.958 73.28C124.406 72.632 123.686 72.128 122.798 71.768C121.934 71.384 120.938 71.192 119.81 71.192C118.73 71.192 117.77 71.384 116.93 71.768C116.114 72.128 115.418 72.656 114.842 73.352C114.29 74.024 113.87 74.828 113.582 75.764C113.294 76.7 113.15 77.72 113.15 78.824C113.15 79.928 113.306 80.96 113.618 81.92C113.93 82.856 114.386 83.684 114.986 84.404C115.586 85.1 116.342 85.64 117.254 86.024C118.166 86.408 119.21 86.6 120.386 86.6C121.874 86.6 123.158 86.288 124.238 85.664C125.318 85.04 126.074 84.212 126.506 83.18L126.002 87.14V81.416H132.122V86.816C131.018 88.712 129.446 90.176 127.406 91.208C125.39 92.216 123.05 92.72 120.386 92.72ZM119.666 82.712V78.032H134.282V82.712H119.666Z" fill="#FFFCF2"/>
</svg>
