<svg width="813" height="526" viewBox="0 0 813 526" fill="none" xmlns="http://www.w3.org/2000/svg">
<g clip-path="url(#clip0_104_1127)">
<path d="M232.856 485.879C227.78 505.321 231.516 526.397 243.607 546.837L288.066 622.001L460.213 520.244L429.261 467.916L385.628 493.708L372.135 470.896C357.143 445.55 336.616 436.441 322.001 433.218C303.289 429.169 283.731 432.283 267.193 441.945C249.75 452.267 237.549 467.865 232.856 485.879ZM334.94 501.181L344.796 517.844L298.683 545.102L288.827 528.438C281.345 515.79 288.093 501.285 298.614 495.066C308.502 489.177 327.139 487.992 334.94 501.181Z" fill="#6336C7"/>
<path d="M119.376 224.121L180.284 206.081L180.252 206.14C179.541 207.468 167.459 228.92 174.627 253.237C178.694 267.037 184.469 276.523 192.022 283.525C200.063 290.965 208.003 296.249 218.31 299.052C218.377 299.081 218.447 299.103 218.518 299.119C221.849 299.96 225.234 300.574 228.65 300.955C228.806 300.985 228.964 301.004 229.123 301.013C236.949 301.832 244.85 301.678 252.645 300.554C252.645 300.554 252.645 300.554 252.709 300.535C259.022 299.663 265.26 298.305 271.366 296.473C295.269 289.393 311.625 277.625 322.352 261.273C327.307 253.834 330.556 245.398 331.864 236.572C333.172 227.745 332.507 218.746 329.917 210.219C327.996 203.374 324.857 196.933 320.649 191.203L320.722 191.181C320.722 191.181 309.855 177.585 298.858 170.892L315.639 165.921L298.658 108.31L102.358 166.451L119.376 224.121ZM239.201 188.63C244.823 187.02 250.781 187.024 256.39 188.642C261.999 190.26 267.03 193.426 270.905 197.776C273.942 201.153 276.181 205.168 277.456 209.526C279.118 215.187 279.116 221.21 277.451 226.881C275.786 232.553 272.528 237.634 268.062 241.525C263.596 245.415 258.109 247.95 252.253 248.83C246.396 249.711 240.414 248.899 235.017 246.492C229.62 244.084 225.032 240.182 221.799 235.247C218.565 230.312 216.821 224.551 216.773 218.647C216.725 212.743 218.374 206.944 221.527 201.936C224.679 196.928 229.201 192.922 234.558 190.391C234.896 190.291 235.204 190.091 235.534 189.964C235.864 189.837 236.14 189.695 236.418 189.593C236.418 189.593 236.418 189.593 236.482 189.574C236.966 189.431 237.458 189.216 237.94 189.034C238.278 188.934 238.616 188.833 238.954 188.733L239.201 188.63Z" fill="#FF5935"/>
<path d="M614.459 205.117L602.408 217.992C602.408 217.992 602.408 217.992 602.406 217.925C602.397 216.464 601.964 191.794 583.519 174.444C573.05 164.597 563.277 159.331 553.23 157.117C542.54 154.771 533.024 154.235 522.717 157.039C522.647 157.05 522.578 157.069 522.511 157.093C519.209 158.048 515.977 159.232 512.836 160.635C512.69 160.694 512.551 160.76 512.399 160.826C505.227 164.077 498.48 168.207 492.313 173.12C492.313 173.12 492.313 173.12 492.268 173.169C487.26 177.12 482.563 181.452 478.218 186.127C461.163 204.347 452.984 222.788 451.974 242.333C451.449 251.263 452.899 260.187 456.221 268.466C459.543 276.744 464.655 284.173 471.189 290.219C476.297 295.152 482.254 299.119 488.774 301.93L488.722 301.986C488.722 301.986 504.955 308.211 517.819 308.415L505.845 321.206L549.547 362.312L658.189 246.249L614.459 205.117ZM560.389 262.881C556.351 267.119 551.208 270.134 545.552 271.58C539.897 273.025 533.959 272.843 528.422 271.053C524.098 269.68 520.142 267.35 516.845 264.234C512.558 260.19 509.524 254.992 508.103 249.255C506.681 243.518 506.932 237.482 508.825 231.863C510.718 226.245 514.175 221.278 518.785 217.552C523.395 213.827 528.965 211.497 534.836 210.841C540.707 210.184 546.632 211.228 551.91 213.848C557.187 216.469 561.596 220.556 564.614 225.625C567.632 230.695 569.133 236.534 568.938 242.452C568.743 248.37 566.861 254.118 563.515 259.015C563.274 259.273 563.108 259.602 562.881 259.872C562.654 260.142 562.494 260.411 562.306 260.639C562.306 260.639 562.306 260.639 562.26 260.688C561.915 261.057 561.605 261.499 561.274 261.894C561.033 262.151 560.792 262.409 560.551 262.666L560.389 262.881Z" fill="#6336C7"/>
<path d="M529.164 134.645L341.707 37.5496L288.762 85.0279L367.99 283.256L415.321 240.812L402.308 211.236L453.835 165.029L481.7 181.286L529.164 134.645ZM383.021 167.785L356.547 107.986L412.903 140.988L383.021 167.785Z" fill="#FFFCF2"/>
<path d="M414.86 270.91C368.283 270.91 330.416 307.645 330.416 352.78C330.416 397.915 368.321 434.65 414.86 434.65C461.399 434.65 499.351 397.924 499.351 352.78C499.351 307.636 461.446 270.91 414.86 270.91ZM414.86 383.517C408.83 383.519 402.935 381.718 397.921 378.342C392.906 374.965 388.997 370.166 386.688 364.549C384.38 358.933 383.775 352.752 384.95 346.789C386.125 340.826 389.028 335.349 393.291 331.049C397.554 326.749 402.986 323.821 408.899 322.634C414.813 321.447 420.943 322.055 426.514 324.382C432.085 326.708 436.847 330.647 440.197 335.702C443.547 340.757 445.336 346.7 445.336 352.78C445.325 360.926 442.111 368.736 436.398 374.497C430.685 380.257 422.939 383.498 414.86 383.508V383.517Z" fill="#FFFCF2"/>
<path d="M329.796 297.059H269.551V431.538H329.796V297.059Z" fill="#FFFCF2"/>
<path d="M474.974 19.5721L448.678 86.5418L400.967 68.3795L427.305 1.35682L474.974 19.5721Z" fill="#25CE51"/>
<path d="M513.444 11.5458L464.402 47.1836L543.213 156.162L592.255 120.524L513.444 11.5458Z" fill="#FFFCF2"/>
<path d="M573.037 368.55L658.193 404.623L634.755 460.222L557.017 427.291C542.312 421.062 529.165 425.667 523.535 439.021C517.829 452.558 523.554 464.921 538.487 471.246L616.225 504.177L592.676 560.037L446.067 497.933L469.615 442.072L491.071 451.161C479.815 431.621 483.781 410.433 484.19 408.58L484.241 408.458C485.095 403.829 486.456 399.31 488.298 394.982C502.074 362.376 534.549 352.247 573.037 368.55Z" fill="#FFFCF2"/>
</g>
<defs>
<clipPath id="clip0_104_1127">
<rect width="813" height="526" fill="white"/>
</clipPath>
</defs>
</svg>
