<svg width="118" height="31" viewBox="0 0 118 31" fill="none" xmlns="http://www.w3.org/2000/svg">
<path d="M0.66394 29V2.71997H11.6439L20.3919 23.672H21.6519L20.9319 24.32V2.71997H27.1959V29H16.1439L7.39594 8.04797H6.13594L6.85594 7.39997V29H0.66394Z" fill="#FFFCF2"/>
<path d="M30.7155 29V2.71997H37.1955V29H30.7155ZM36.4755 29V23.528H47.5635V29H36.4755ZM36.4755 18.38V12.908H46.8075V18.38H36.4755ZM36.4755 8.19197V2.71997H47.3475V8.19197H36.4755Z" fill="#FFFCF2"/>
<path d="M47.7722 29L56.4842 15.032L56.5562 15.608L48.4922 2.71997H55.8362L60.3362 10.316H61.2722L65.6282 2.71997H72.7562L64.7282 15.68L64.6202 15.104L73.6202 29H66.2762L60.9122 20.324H59.9762L54.9002 29H47.7722Z" fill="#FFFCF2"/>
<path d="M80.0434 29V7.83197H86.7394V29H80.0434ZM72.8434 8.55197V2.71997H93.9394V8.55197H72.8434Z" fill="#FFFCF2"/>
<path d="M99.5 2.5L112.5 15.5L99.5 28.5" stroke="#FFFCF2" stroke-width="7"/>
</svg>
