<svg width="165" height="29" viewBox="0 0 165 29" fill="none" xmlns="http://www.w3.org/2000/svg">
<path d="M2.33384 7.51873V5.96255H4.07841C4.4306 5.96255 4.72546 5.89086 4.96298 5.74747C5.20869 5.60408 5.39298 5.40587 5.51584 5.15283C5.64688 4.8998 5.71241 4.60881 5.71241 4.27986C5.71241 3.95091 5.64688 3.65992 5.51584 3.40688C5.39298 3.15385 5.20869 2.95985 4.96298 2.8249C4.72546 2.68151 4.4306 2.60982 4.07841 2.60982H2.33384V1.05364H3.93098C4.6845 1.05364 5.32336 1.18016 5.84755 1.4332C6.37993 1.68624 6.78536 2.04892 7.06383 2.52126C7.34231 2.98516 7.48154 3.53762 7.48154 4.17864V4.38107C7.48154 5.0221 7.34231 5.57878 7.06383 6.05111C6.78536 6.51501 6.37993 6.8777 5.84755 7.13917C5.32336 7.39221 4.6845 7.51873 3.93098 7.51873H2.33384ZM0.83499 10.3527V1.05364H2.57956V10.3527H0.83499Z" fill="#25CE51"/>
<path d="M13.2358 10.3527V8.31579H12.9532V6.05111C12.9532 5.65469 12.859 5.35948 12.6706 5.16549C12.4822 4.97149 12.1915 4.87449 11.7983 4.87449C11.5936 4.87449 11.3479 4.87871 11.0612 4.88715C10.7745 4.89558 10.4838 4.90823 10.1889 4.9251C9.90224 4.93354 9.64424 4.94619 9.41491 4.96306V3.47014C9.60329 3.45327 9.81624 3.4364 10.0538 3.41953C10.2913 3.40267 10.5329 3.39423 10.7786 3.39423C11.0325 3.3858 11.27 3.38158 11.4912 3.38158C12.1792 3.38158 12.7484 3.47436 13.1989 3.65992C13.6576 3.84548 14.0016 4.13647 14.2309 4.5329C14.4684 4.92932 14.5872 5.44804 14.5872 6.08907V10.3527H13.2358ZM11.0858 10.5299C10.6025 10.5299 10.1766 10.4413 9.80805 10.2642C9.44767 10.087 9.1651 9.83401 8.96034 9.50506C8.76377 9.17611 8.66548 8.77969 8.66548 8.31579C8.66548 7.80972 8.78424 7.39642 9.02177 7.07591C9.26748 6.7554 9.60738 6.51501 10.0415 6.35476C10.4838 6.1945 10.9998 6.11437 11.5895 6.11437H13.1375V7.16447H11.5649C11.1718 7.16447 10.8687 7.26569 10.6558 7.46812C10.451 7.66211 10.3486 7.91515 10.3486 8.22723C10.3486 8.53931 10.451 8.79234 10.6558 8.98634C10.8687 9.18033 11.1718 9.27733 11.5649 9.27733C11.8024 9.27733 12.0195 9.23516 12.216 9.15081C12.4208 9.05803 12.5887 8.90621 12.7198 8.69534C12.859 8.47605 12.9368 8.18084 12.9532 7.80972L13.3709 8.30314C13.3299 8.78391 13.2153 9.18877 13.0269 9.51771C12.8467 9.84666 12.5928 10.0997 12.2652 10.2768C11.9458 10.4455 11.5526 10.5299 11.0858 10.5299Z" fill="#25CE51"/>
<path d="M19.8687 10.5931C19.2872 10.5931 18.7834 10.4919 18.3575 10.2895C17.9398 10.087 17.5876 9.81714 17.301 9.47976C17.0225 9.14238 16.8136 8.76282 16.6744 8.34109C16.5352 7.91937 16.4655 7.4892 16.4655 7.05061V6.81022C16.4655 6.34632 16.5352 5.90351 16.6744 5.48178C16.8218 5.05162 17.0389 4.67207 17.3255 4.34312C17.6122 4.00574 17.9644 3.74005 18.3821 3.54605C18.808 3.34362 19.2994 3.24241 19.8564 3.24241C20.4379 3.24241 20.958 3.36049 21.4167 3.59666C21.8753 3.82439 22.2398 4.14491 22.5101 4.5582C22.7886 4.97149 22.9442 5.45226 22.977 6.00051H21.3184C21.2774 5.64626 21.13 5.35105 20.8761 5.11488C20.6304 4.87871 20.2905 4.76063 19.8564 4.76063C19.4796 4.76063 19.1643 4.85341 18.9104 5.03897C18.6647 5.22453 18.4804 5.48178 18.3575 5.81073C18.2347 6.13124 18.1733 6.50236 18.1733 6.92409C18.1733 7.32895 18.2306 7.69585 18.3453 8.0248C18.4681 8.35375 18.6524 8.611 18.8981 8.79656C19.152 8.98212 19.4755 9.0749 19.8687 9.0749C20.1635 9.0749 20.4174 9.02007 20.6304 8.91043C20.8433 8.80078 21.0112 8.64895 21.1341 8.45496C21.2652 8.26097 21.3471 8.04167 21.3798 7.79706H23.0384C23.0056 8.35375 22.8459 8.84295 22.5592 9.26468C22.2808 9.67797 21.9081 10.0027 21.4412 10.2389C20.9826 10.475 20.4584 10.5931 19.8687 10.5931Z" fill="#25CE51"/>
<path d="M29.5664 10.3527L27.3304 7.13917H26.3353L29.1733 3.48279H30.9547L28.3378 6.86083L28.3747 5.9752L31.4953 10.3527H29.5664ZM24.8978 10.3527V1.1169H26.6056V10.3527H24.8978Z" fill="#25CE51"/>
<path d="M36.9178 10.3527V8.31579H36.6353V6.05111C36.6353 5.65469 36.5411 5.35948 36.3527 5.16549C36.1643 4.97149 35.8736 4.87449 35.4804 4.87449C35.2757 4.87449 35.0299 4.87871 34.7433 4.88715C34.4566 4.89558 34.1659 4.90823 33.871 4.9251C33.5843 4.93354 33.3263 4.94619 33.097 4.96306V3.47014C33.2854 3.45327 33.4983 3.4364 33.7359 3.41953C33.9734 3.40267 34.215 3.39423 34.4607 3.39423C34.7146 3.3858 34.9521 3.38158 35.1733 3.38158C35.8613 3.38158 36.4305 3.47436 36.881 3.65992C37.3397 3.84548 37.6837 4.13647 37.913 4.5329C38.1505 4.92932 38.2693 5.44804 38.2693 6.08907V10.3527H36.9178ZM34.7679 10.5299C34.2846 10.5299 33.8587 10.4413 33.4901 10.2642C33.1298 10.087 32.8472 9.83401 32.6424 9.50506C32.4459 9.17611 32.3476 8.77969 32.3476 8.31579C32.3476 7.80972 32.4663 7.39642 32.7039 7.07591C32.9496 6.7554 33.2895 6.51501 33.7236 6.35476C34.1659 6.1945 34.6819 6.11437 35.2716 6.11437H36.8196V7.16447H35.247C34.8539 7.16447 34.5508 7.26569 34.3379 7.46812C34.1331 7.66211 34.0307 7.91515 34.0307 8.22723C34.0307 8.53931 34.1331 8.79234 34.3379 8.98634C34.5508 9.18033 34.8539 9.27733 35.247 9.27733C35.4845 9.27733 35.7016 9.23516 35.8981 9.15081C36.1029 9.05803 36.2708 8.90621 36.4018 8.69534C36.5411 8.47605 36.6189 8.18084 36.6353 7.80972L37.053 8.30314C37.012 8.78391 36.8974 9.18877 36.709 9.51771C36.5288 9.84666 36.2749 10.0997 35.9473 10.2768C35.6279 10.4455 35.2347 10.5299 34.7679 10.5299Z" fill="#25CE51"/>
<path d="M43.1945 13.0602C42.8751 13.0602 42.5474 13.0476 42.2116 13.0223C41.884 12.997 41.5769 12.9632 41.2902 12.9211V11.4534C41.5851 11.4872 41.9004 11.5167 42.2362 11.542C42.572 11.5757 42.8873 11.5926 43.1822 11.5926C43.731 11.5926 44.1732 11.5251 44.5091 11.3902C44.8531 11.2552 45.1029 11.0401 45.2585 10.7449C45.4223 10.4582 45.5042 10.0913 45.5042 9.64423V8.29049L45.8728 7.43016C45.8482 8.06275 45.7212 8.60256 45.4919 9.0496C45.2626 9.48819 44.9513 9.82557 44.5582 10.0617C44.1651 10.2895 43.7105 10.4033 43.1945 10.4033C42.7358 10.4033 42.3181 10.3148 41.9414 10.1377C41.5728 9.96053 41.2534 9.71592 40.9831 9.40385C40.721 9.09177 40.5162 8.72487 40.3688 8.30314C40.2214 7.88141 40.1476 7.43016 40.1476 6.94939V6.6837C40.1476 6.20294 40.2214 5.7559 40.3688 5.34261C40.5244 4.92088 40.7414 4.55398 41.0199 4.2419C41.2984 3.92982 41.6301 3.68944 42.0151 3.52075C42.4 3.35206 42.8259 3.26771 43.2928 3.26771C43.8415 3.26771 44.3166 3.39001 44.7179 3.63462C45.1274 3.87922 45.4469 4.23347 45.6762 4.69737C45.9055 5.16127 46.0325 5.7306 46.0571 6.40536L45.7622 6.45597V3.48279H47.1136V9.54302C47.1136 10.378 46.9744 11.0528 46.6959 11.5673C46.4174 12.0818 45.9874 12.4572 45.4059 12.6933C44.8326 12.9379 44.0954 13.0602 43.1945 13.0602ZM43.6859 8.89777C44.0135 8.89777 44.3125 8.82186 44.5828 8.67004C44.8531 8.51822 45.0701 8.29892 45.2339 8.01215C45.3977 7.72537 45.4796 7.37955 45.4796 6.9747V6.53188C45.4796 6.14389 45.3936 5.81495 45.2216 5.54504C45.0578 5.27514 44.8408 5.07271 44.5705 4.93775C44.3002 4.79437 44.0053 4.72267 43.6859 4.72267C43.3255 4.72267 43.0061 4.81124 42.7276 4.98836C42.4573 5.15705 42.2444 5.39744 42.0888 5.70951C41.9332 6.02159 41.8553 6.39271 41.8553 6.82287C41.8553 7.2446 41.9332 7.6115 42.0888 7.92358C42.2444 8.23566 42.4573 8.47605 42.7276 8.64474C43.0061 8.81343 43.3255 8.89777 43.6859 8.89777Z" fill="#25CE51"/>
<path d="M49.7872 10.3527V3.48279H51.4949V10.3527H49.7872ZM48.8535 4.79858V3.48279H51.4949V4.79858H48.8535ZM50.4138 2.66043C50.078 2.66043 49.8281 2.57186 49.6643 2.39474C49.5087 2.20918 49.4309 1.98144 49.4309 1.71154C49.4309 1.42476 49.5087 1.19281 49.6643 1.01569C49.8281 0.838563 50.078 0.75 50.4138 0.75C50.7496 0.75 50.9953 0.838563 51.1509 1.01569C51.3065 1.19281 51.3843 1.42476 51.3843 1.71154C51.3843 1.98144 51.3065 2.20918 51.1509 2.39474C50.9953 2.57186 50.7496 2.66043 50.4138 2.66043Z" fill="#25CE51"/>
<path d="M53.9544 10.3527V3.48279H55.3059V6.43067H55.183C55.183 5.7306 55.2731 5.14862 55.4533 4.68472C55.6335 4.21238 55.8997 3.85813 56.2519 3.62196C56.6122 3.3858 57.0586 3.26771 57.591 3.26771H57.6647C58.4592 3.26771 59.0612 3.5334 59.4707 4.06478C59.8802 4.58772 60.085 5.37213 60.085 6.41802V10.3527H58.3773V6.26619C58.3773 5.84447 58.2585 5.50287 58.021 5.2414C57.7917 4.97993 57.4722 4.84919 57.0627 4.84919C56.645 4.84919 56.3051 4.98414 56.043 5.25405C55.7891 5.51552 55.6622 5.86977 55.6622 6.3168V10.3527H53.9544Z" fill="#25CE51"/>
<path d="M65.0169 13.0602C64.6975 13.0602 64.3699 13.0476 64.0341 13.0223C63.7065 12.997 63.3993 12.9632 63.1127 12.9211V11.4534C63.4075 11.4872 63.7228 11.5167 64.0586 11.542C64.3945 11.5757 64.7098 11.5926 65.0046 11.5926C65.5534 11.5926 65.9957 11.5251 66.3315 11.3902C66.6755 11.2552 66.9253 11.0401 67.0809 10.7449C67.2447 10.4582 67.3266 10.0913 67.3266 9.64423V8.29049L67.6952 7.43016C67.6706 8.06275 67.5437 8.60256 67.3144 9.0496C67.085 9.48819 66.7738 9.82557 66.3806 10.0617C65.9875 10.2895 65.5329 10.4033 65.0169 10.4033C64.5583 10.4033 64.1406 10.3148 63.7638 10.1377C63.3952 9.96053 63.0758 9.71592 62.8055 9.40385C62.5434 9.09177 62.3387 8.72487 62.1912 8.30314C62.0438 7.88141 61.9701 7.43016 61.9701 6.94939V6.6837C61.9701 6.20294 62.0438 5.7559 62.1912 5.34261C62.3468 4.92088 62.5639 4.55398 62.8424 4.2419C63.1208 3.92982 63.4526 3.68944 63.8375 3.52075C64.2225 3.35206 64.6484 3.26771 65.1152 3.26771C65.664 3.26771 66.139 3.39001 66.5404 3.63462C66.9499 3.87922 67.2693 4.23347 67.4986 4.69737C67.728 5.16127 67.8549 5.7306 67.8795 6.40536L67.5846 6.45597V3.48279H68.9361V9.54302C68.9361 10.378 68.7968 11.0528 68.5184 11.5673C68.2399 12.0818 67.8099 12.4572 67.2284 12.6933C66.655 12.9379 65.9179 13.0602 65.0169 13.0602ZM65.5084 8.89777C65.836 8.89777 66.1349 8.82186 66.4052 8.67004C66.6755 8.51822 66.8926 8.29892 67.0564 8.01215C67.2202 7.72537 67.3021 7.37955 67.3021 6.9747V6.53188C67.3021 6.14389 67.2161 5.81495 67.0441 5.54504C66.8803 5.27514 66.6632 5.07271 66.3929 4.93775C66.1226 4.79437 65.8278 4.72267 65.5084 4.72267C65.148 4.72267 64.8286 4.81124 64.5501 4.98836C64.2798 5.15705 64.0668 5.39744 63.9112 5.70951C63.7556 6.02159 63.6778 6.39271 63.6778 6.82287C63.6778 7.2446 63.7556 7.6115 63.9112 7.92358C64.0668 8.23566 64.2798 8.47605 64.5501 8.64474C64.8286 8.81343 65.148 8.89777 65.5084 8.89777Z" fill="#25CE51"/>
<path d="M76.0671 10.4033V8.7333H77.9223C78.3891 8.7333 78.8028 8.66161 79.1631 8.51822C79.5317 8.3664 79.8429 8.15553 80.0968 7.88563C80.3507 7.61572 80.5432 7.29943 80.6743 6.93674C80.8135 6.56562 80.8831 6.15655 80.8831 5.70951C80.8831 5.24561 80.8135 4.83232 80.6743 4.46964C80.5432 4.09852 80.3507 3.78222 80.0968 3.52075C79.8429 3.25928 79.5317 3.06107 79.1631 2.92611C78.8028 2.79116 78.3891 2.72368 77.9223 2.72368H76.0671V1.05364H77.8117C78.6226 1.05364 79.331 1.17595 79.9371 1.42055C80.5432 1.66515 81.0469 2.00253 81.4483 2.43269C81.8496 2.85442 82.1485 3.33941 82.3451 3.88765C82.5499 4.42746 82.6523 4.98836 82.6523 5.57034V5.84868C82.6523 6.40536 82.5499 6.95361 82.3451 7.49342C82.1485 8.03323 81.8496 8.52244 81.4483 8.96103C81.0469 9.39963 80.5432 9.74966 79.9371 10.0111C79.331 10.2726 78.6226 10.4033 77.8117 10.4033H76.0671ZM74.5683 10.4033V1.05364H76.3128V10.4033H74.5683Z" fill="#25CE51"/>
<path d="M87.5562 10.5931C86.9828 10.5931 86.4791 10.4919 86.045 10.2895C85.6191 10.087 85.2628 9.81714 84.9762 9.47976C84.6977 9.13394 84.4847 8.75017 84.3373 8.32844C84.1981 7.90671 84.1285 7.47655 84.1285 7.03796V6.79757C84.1285 6.34211 84.1981 5.90351 84.3373 5.48178C84.4847 5.05162 84.6977 4.67207 84.9762 4.34312C85.2628 4.00574 85.615 3.74005 86.0327 3.54605C86.4505 3.34362 86.9337 3.24241 87.4825 3.24241C88.2032 3.24241 88.8052 3.40688 89.2884 3.73583C89.7799 4.05634 90.1484 4.48229 90.3942 5.01366C90.6399 5.53661 90.7627 6.10172 90.7627 6.70901V7.3416H84.8533V6.26619H89.6939L89.1656 6.79757C89.1656 6.35897 89.1042 5.98364 88.9813 5.67156C88.8585 5.35948 88.6701 5.1191 88.4162 4.95041C88.1705 4.78171 87.8592 4.69737 87.4825 4.69737C87.1057 4.69737 86.7863 4.78593 86.5242 4.96306C86.2621 5.14018 86.0614 5.39744 85.9222 5.73482C85.7911 6.06377 85.7256 6.46019 85.7256 6.92409C85.7256 7.35425 85.7911 7.73802 85.9222 8.07541C86.0532 8.40435 86.2539 8.66582 86.5242 8.85982C86.7945 9.04538 87.1385 9.13816 87.5562 9.13816C87.9739 9.13816 88.3138 9.05381 88.5759 8.88512C88.838 8.708 89.0059 8.49292 89.0796 8.23988H90.6522C90.5539 8.71221 90.3655 9.12551 90.087 9.47976C89.8085 9.83401 89.4523 10.1081 89.0182 10.3021C88.5923 10.4961 88.1049 10.5931 87.5562 10.5931Z" fill="#25CE51"/>
<path d="M95.101 10.5678C94.1837 10.5678 93.4629 10.3696 92.9387 9.97318C92.4227 9.56832 92.1525 9.01164 92.1279 8.30314H93.6636C93.6882 8.53931 93.8151 8.75439 94.0444 8.94838C94.2738 9.14238 94.6342 9.23937 95.1256 9.23937C95.5351 9.23937 95.8586 9.16346 96.0962 9.01164C96.3419 8.85982 96.4647 8.65317 96.4647 8.3917C96.4647 8.16397 96.3705 7.98263 96.1822 7.84767C96.002 7.71272 95.6907 7.62416 95.2484 7.58198L94.6587 7.51873C93.9134 7.43438 93.3401 7.21508 92.9387 6.86083C92.5374 6.50658 92.3367 6.03424 92.3367 5.44383C92.3367 4.97149 92.4514 4.57507 92.6807 4.25455C92.9101 3.93404 93.2254 3.69366 93.6267 3.5334C94.0363 3.36471 94.5031 3.28036 95.0273 3.28036C95.8463 3.28036 96.5098 3.46592 97.0176 3.83704C97.5254 4.20816 97.7916 4.75219 97.8162 5.46913H96.2804C96.2641 5.23296 96.1494 5.03053 95.9364 4.86184C95.7235 4.69315 95.4164 4.60881 95.015 4.60881C94.6546 4.60881 94.3762 4.6805 94.1796 4.82389C93.983 4.96727 93.8847 5.15283 93.8847 5.38057C93.8847 5.59987 93.9625 5.76856 94.1182 5.88664C94.282 6.00472 94.5441 6.08485 94.9044 6.12702L95.4942 6.19028C96.2804 6.27463 96.8947 6.49814 97.337 6.86083C97.7875 7.22352 98.0127 7.71272 98.0127 8.32844C98.0127 8.78391 97.8899 9.18033 97.6442 9.51771C97.4066 9.84666 97.0708 10.1039 96.6367 10.2895C96.2026 10.475 95.6907 10.5678 95.101 10.5678Z" fill="#25CE51"/>
<path d="M100.234 10.3527V3.48279H101.942V10.3527H100.234ZM99.3006 4.79858V3.48279H101.942V4.79858H99.3006ZM100.861 2.66043C100.525 2.66043 100.275 2.57186 100.111 2.39474C99.9559 2.20918 99.878 1.98144 99.878 1.71154C99.878 1.42476 99.9559 1.19281 100.111 1.01569C100.275 0.838563 100.525 0.75 100.861 0.75C101.197 0.75 101.442 0.838563 101.598 1.01569C101.754 1.19281 101.831 1.42476 101.831 1.71154C101.831 1.98144 101.754 2.20918 101.598 2.39474C101.442 2.57186 101.197 2.66043 100.861 2.66043Z" fill="#25CE51"/>
<path d="M107.006 13.0602C106.687 13.0602 106.359 13.0476 106.023 13.0223C105.696 12.997 105.389 12.9632 105.102 12.9211V11.4534C105.397 11.4872 105.712 11.5167 106.048 11.542C106.384 11.5757 106.699 11.5926 106.994 11.5926C107.543 11.5926 107.985 11.5251 108.321 11.3902C108.665 11.2552 108.915 11.0401 109.07 10.7449C109.234 10.4582 109.316 10.0913 109.316 9.64423V8.29049L109.684 7.43016C109.66 8.06275 109.533 8.60256 109.304 9.0496C109.074 9.48819 108.763 9.82557 108.37 10.0617C107.977 10.2895 107.522 10.4033 107.006 10.4033C106.547 10.4033 106.13 10.3148 105.753 10.1377C105.384 9.96053 105.065 9.71592 104.795 9.40385C104.533 9.09177 104.328 8.72487 104.18 8.30314C104.033 7.88141 103.959 7.43016 103.959 6.94939V6.6837C103.959 6.20294 104.033 5.7559 104.18 5.34261C104.336 4.92088 104.553 4.55398 104.832 4.2419C105.11 3.92982 105.442 3.68944 105.827 3.52075C106.212 3.35206 106.638 3.26771 107.104 3.26771C107.653 3.26771 108.128 3.39001 108.53 3.63462C108.939 3.87922 109.259 4.23347 109.488 4.69737C109.717 5.16127 109.844 5.7306 109.869 6.40536L109.574 6.45597V3.48279H110.925V9.54302C110.925 10.378 110.786 11.0528 110.508 11.5673C110.229 12.0818 109.799 12.4572 109.218 12.6933C108.644 12.9379 107.907 13.0602 107.006 13.0602ZM107.498 8.89777C107.825 8.89777 108.124 8.82186 108.394 8.67004C108.665 8.51822 108.882 8.29892 109.046 8.01215C109.209 7.72537 109.291 7.37955 109.291 6.9747V6.53188C109.291 6.14389 109.205 5.81495 109.033 5.54504C108.869 5.27514 108.652 5.07271 108.382 4.93775C108.112 4.79437 107.817 4.72267 107.498 4.72267C107.137 4.72267 106.818 4.81124 106.539 4.98836C106.269 5.15705 106.056 5.39744 105.9 5.70951C105.745 6.02159 105.667 6.39271 105.667 6.82287C105.667 7.2446 105.745 7.6115 105.9 7.92358C106.056 8.23566 106.269 8.47605 106.539 8.64474C106.818 8.81343 107.137 8.89777 107.498 8.89777Z" fill="#25CE51"/>
<path d="M113.279 10.3527V3.48279H114.631V6.43067H114.508C114.508 5.7306 114.598 5.14862 114.778 4.68472C114.958 4.21238 115.225 3.85813 115.577 3.62196C115.937 3.3858 116.384 3.26771 116.916 3.26771H116.99C117.784 3.26771 118.386 3.5334 118.796 4.06478C119.205 4.58772 119.41 5.37213 119.41 6.41802V10.3527H117.702V6.26619C117.702 5.84447 117.583 5.50287 117.346 5.2414C117.117 4.97993 116.797 4.84919 116.388 4.84919C115.97 4.84919 115.63 4.98414 115.368 5.25405C115.114 5.51552 114.987 5.86977 114.987 6.3168V10.3527H113.279Z" fill="#25CE51"/>
<path d="M6.28983 26.1675L2.77613 22.2707C2.39937 21.849 2.10042 21.4821 1.87927 21.17C1.66632 20.858 1.5107 20.5585 1.41242 20.2718C1.32232 19.985 1.27727 19.6729 1.27727 19.3355C1.27727 18.8126 1.38375 18.3656 1.5967 17.9944C1.80965 17.6149 2.14137 17.3239 2.59184 17.1215C3.05051 16.919 3.64022 16.8178 4.36098 16.8178C4.64765 16.8178 4.95069 16.8305 5.27012 16.8558C5.59774 16.8811 5.88441 16.9148 6.13012 16.957V18.4246C5.96631 18.3993 5.76155 18.3782 5.51584 18.3613C5.27012 18.336 5.02441 18.3192 4.77869 18.3107C4.54117 18.2939 4.3446 18.2854 4.18898 18.2854C3.67298 18.2854 3.32079 18.3824 3.13241 18.5764C2.95222 18.7704 2.86213 19.0488 2.86213 19.4114C2.86213 19.7319 2.93584 20.0356 3.08327 20.3224C3.2307 20.6007 3.46413 20.9212 3.78355 21.2839L8.2064 26.1675H6.28983ZM3.3167 26.4205C2.66146 26.4205 2.08813 26.2898 1.5967 26.0283C1.11347 25.7669 0.732609 25.4126 0.454134 24.9656C0.183849 24.5186 0.0487061 24.0209 0.0487061 23.4727V23.2955C0.0487061 22.6883 0.21661 22.1484 0.552419 21.6761C0.888228 21.1953 1.31413 20.8242 1.83013 20.5628L2.56727 21.5496C2.30518 21.7099 2.08403 21.946 1.90384 22.2581C1.72365 22.5617 1.63356 22.9118 1.63356 23.3082C1.63356 23.6456 1.70318 23.9408 1.84242 24.1938C1.98984 24.4384 2.19461 24.6282 2.4567 24.7632C2.71879 24.8981 3.03003 24.9656 3.39041 24.9656C3.89822 24.9656 4.35279 24.8222 4.75412 24.5354C5.16365 24.2487 5.48307 23.8101 5.71241 23.2196C5.94993 22.6208 6.06869 21.8575 6.06869 20.9297H7.56754C7.56754 21.8068 7.46107 22.587 7.24812 23.2702C7.03516 23.945 6.73621 24.5186 6.35126 24.9909C5.96631 25.4548 5.51584 25.809 4.99984 26.0536C4.48384 26.2982 3.92279 26.4205 3.3167 26.4205ZM4.82784 21.1574V19.8542H8.23097V21.1574H4.82784Z" fill="#25CE51"/>
<path d="M17.8806 26.2308V24.7885H20.1289C20.5384 24.7885 20.8496 24.6746 21.0626 24.4469C21.2756 24.2107 21.382 23.8902 21.382 23.4853C21.382 23.0805 21.2756 22.7684 21.0626 22.5491C20.8496 22.3214 20.5384 22.2075 20.1289 22.2075H17.8806V21.1068H20.006C20.6039 21.1068 21.1363 21.1827 21.6032 21.3345C22.0782 21.4779 22.4468 21.7225 22.7089 22.0683C22.9792 22.4141 23.1143 22.878 23.1143 23.46V23.6371C23.1143 24.1854 22.9955 24.6535 22.758 25.0415C22.5287 25.4211 22.1806 25.7163 21.7137 25.9271C21.2551 26.1296 20.6858 26.2308 20.006 26.2308H17.8806ZM16.4186 26.2308V16.8684H18.1263V26.2308H16.4186ZM17.8806 21.9165V20.8158H19.7972C20.2149 20.8158 20.522 20.7019 20.7186 20.4742C20.9152 20.2465 21.0135 19.9428 21.0135 19.5633C21.0135 19.1837 20.9152 18.8801 20.7186 18.6523C20.522 18.4246 20.2149 18.3107 19.7972 18.3107H17.8806V16.8684H19.6375C20.6531 16.8684 21.423 17.0877 21.9472 17.5263C22.4795 17.9649 22.7457 18.5933 22.7457 19.4114V19.5886C22.7457 20.1621 22.6106 20.6218 22.3403 20.9676C22.0782 21.305 21.7137 21.5496 21.2469 21.7014C20.78 21.8448 20.2436 21.9165 19.6375 21.9165H17.8806Z" fill="#25CE51"/>
<path d="M25.2333 26.1675V19.2976H26.5847V22.2075H26.5479C26.5479 21.2206 26.7526 20.4742 27.1622 19.9681C27.5717 19.462 28.1737 19.209 28.9681 19.209H29.2139V20.7399H28.747C28.1737 20.7399 27.7273 20.9001 27.4079 21.2206C27.0966 21.5327 26.941 21.9882 26.941 22.587V26.1675H25.2333Z" fill="#25CE51"/>
<path d="M34.8538 26.1675V24.1306H34.5712V21.8659C34.5712 21.4695 34.477 21.1743 34.2886 20.9803C34.1002 20.7863 33.8095 20.6893 33.4163 20.6893C33.2116 20.6893 32.9659 20.6935 32.6792 20.7019C32.3925 20.7104 32.1018 20.723 31.8069 20.7399C31.5202 20.7483 31.2622 20.761 31.0329 20.7778V19.2849C31.2213 19.268 31.4342 19.2512 31.6718 19.2343C31.9093 19.2174 32.1509 19.209 32.3966 19.209C32.6505 19.2006 32.888 19.1964 33.1092 19.1964C33.7972 19.1964 34.3664 19.2891 34.8169 19.4747C35.2756 19.6603 35.6196 19.9512 35.8489 20.3477C36.0864 20.7441 36.2052 21.2628 36.2052 21.9038V26.1675H34.8538ZM32.7038 26.3446C32.2205 26.3446 31.7946 26.2561 31.4261 26.0789C31.0657 25.9018 30.7831 25.6488 30.5783 25.3198C30.3818 24.9909 30.2835 24.5945 30.2835 24.1306C30.2835 23.6245 30.4022 23.2112 30.6398 22.8907C30.8855 22.5702 31.2254 22.3298 31.6595 22.1695C32.1018 22.0093 32.6178 21.9291 33.2075 21.9291H34.7555V22.9793H33.1829C32.7898 22.9793 32.4867 23.0805 32.2738 23.2829C32.069 23.4769 31.9666 23.7299 31.9666 24.042C31.9666 24.3541 32.069 24.6071 32.2738 24.8011C32.4867 24.9951 32.7898 25.0921 33.1829 25.0921C33.4204 25.0921 33.6375 25.0499 33.834 24.9656C34.0388 24.8728 34.2067 24.721 34.3378 24.5101C34.477 24.2908 34.5548 23.9956 34.5712 23.6245L34.9889 24.1179C34.9479 24.5987 34.8333 25.0035 34.6449 25.3325C34.4647 25.6614 34.2108 25.9145 33.8832 26.0916C33.5638 26.2603 33.1706 26.3446 32.7038 26.3446Z" fill="#25CE51"/>
<path d="M38.5258 26.1675V19.2976H39.8773V22.2454H39.7544C39.7544 21.5454 39.8445 20.9634 40.0247 20.4995C40.2049 20.0272 40.4711 19.6729 40.8233 19.4367C41.1836 19.2006 41.63 19.0825 42.1624 19.0825H42.2361C43.0306 19.0825 43.6326 19.3482 44.0421 19.8796C44.4516 20.4025 44.6564 21.1869 44.6564 22.2328V26.1675H42.9487V22.081C42.9487 21.6592 42.8299 21.3176 42.5924 21.0562C42.3631 20.7947 42.0436 20.664 41.6341 20.664C41.2164 20.664 40.8765 20.7989 40.6144 21.0688C40.3605 21.3303 40.2335 21.6845 40.2335 22.1316V26.1675H38.5258Z" fill="#25CE51"/>
<path d="M49.748 26.3952C49.2812 26.3952 48.8512 26.3067 48.458 26.1296C48.0649 25.9524 47.725 25.7036 47.4383 25.3831C47.1517 25.0626 46.9305 24.6915 46.7749 24.2697C46.6193 23.8396 46.5415 23.3757 46.5415 22.878V22.6123C46.5415 22.1231 46.6152 21.6635 46.7626 21.2333C46.9182 20.8031 47.1312 20.4278 47.4015 20.1073C47.6799 19.7868 48.0117 19.538 48.3966 19.3608C48.7898 19.1753 49.2238 19.0825 49.6989 19.0825C50.2231 19.0825 50.6817 19.2006 51.0749 19.4367C51.4762 19.6645 51.7956 20.0103 52.0332 20.4742C52.2707 20.9381 52.4017 21.5201 52.4263 22.2201L51.9226 21.6129V16.9317H53.6303V26.1675H52.2789V23.2449H52.5737C52.5492 23.945 52.4099 24.5312 52.156 25.0035C51.9021 25.4674 51.5663 25.8175 51.1486 26.0536C50.7391 26.2814 50.2722 26.3952 49.748 26.3952ZM50.1289 24.915C50.4647 24.915 50.7718 24.8391 51.0503 24.6872C51.3288 24.527 51.5499 24.2993 51.7137 24.004C51.8857 23.7004 51.9717 23.3462 51.9717 22.9413V22.4352C51.9717 22.0304 51.8857 21.693 51.7137 21.4231C51.5417 21.1447 51.3165 20.9339 51.038 20.7905C50.7596 20.6387 50.4565 20.5628 50.1289 20.5628C49.7603 20.5628 49.4327 20.6555 49.146 20.8411C48.8676 21.0182 48.6464 21.2713 48.4826 21.6002C48.327 21.9291 48.2492 22.3129 48.2492 22.7515C48.2492 23.1901 48.3311 23.5739 48.4949 23.9028C48.6587 24.2233 48.8798 24.4722 49.1583 24.6493C49.445 24.8264 49.7685 24.915 50.1289 24.915Z" fill="#25CE51"/>
<path d="M59.3682 26.1675V16.9317H61.1128V26.1675H59.3682Z" fill="#25CE51"/>
<path d="M66.4714 26.3952C66.0046 26.3952 65.5746 26.3067 65.1814 26.1296C64.7883 25.9524 64.4484 25.7036 64.1617 25.3831C63.8751 25.0626 63.6539 24.6915 63.4983 24.2697C63.3427 23.8396 63.2649 23.3757 63.2649 22.878V22.6123C63.2649 22.1231 63.3386 21.6635 63.486 21.2333C63.6416 20.8031 63.8546 20.4278 64.1249 20.1073C64.4034 19.7868 64.7351 19.538 65.12 19.3608C65.5132 19.1753 65.9473 19.0825 66.4223 19.0825C66.9465 19.0825 67.4052 19.2006 67.7983 19.4367C68.1996 19.6645 68.5191 20.0103 68.7566 20.4742C68.9941 20.9381 69.1251 21.5201 69.1497 22.2201L68.646 21.6129V16.9317H70.3537V26.1675H69.0023V23.2449H69.2971C69.2726 23.945 69.1333 24.5312 68.8794 25.0035C68.6255 25.4674 68.2897 25.8175 67.872 26.0536C67.4625 26.2814 66.9956 26.3952 66.4714 26.3952ZM66.8523 24.915C67.1881 24.915 67.4952 24.8391 67.7737 24.6872C68.0522 24.527 68.2733 24.2993 68.4372 24.004C68.6092 23.7004 68.6952 23.3462 68.6952 22.9413V22.4352C68.6952 22.0304 68.6092 21.693 68.4372 21.4231C68.2652 21.1447 68.0399 20.9339 67.7614 20.7905C67.483 20.6387 67.1799 20.5628 66.8523 20.5628C66.4837 20.5628 66.1561 20.6555 65.8694 20.8411C65.591 21.0182 65.3698 21.2713 65.206 21.6002C65.0504 21.9291 64.9726 22.3129 64.9726 22.7515C64.9726 23.1901 65.0545 23.5739 65.2183 23.9028C65.3821 24.2233 65.6033 24.4722 65.8817 24.6493C66.1684 24.8264 66.4919 24.915 66.8523 24.915Z" fill="#25CE51"/>
<path d="M75.7744 26.4079C75.2011 26.4079 74.6973 26.3067 74.2633 26.1042C73.8373 25.9018 73.4811 25.6319 73.1944 25.2945C72.9159 24.9487 72.703 24.5649 72.5555 24.1432C72.4163 23.7215 72.3467 23.2913 72.3467 22.8527V22.6123C72.3467 22.1569 72.4163 21.7183 72.5555 21.2966C72.703 20.8664 72.9159 20.4868 73.1944 20.1579C73.4811 19.8205 73.8333 19.5548 74.251 19.3608C74.6687 19.1584 75.1519 19.0572 75.7007 19.0572C76.4214 19.0572 77.0234 19.2217 77.5067 19.5506C77.9981 19.8711 78.3667 20.2971 78.6124 20.8284C78.8581 21.3514 78.981 21.9165 78.981 22.5238V23.1564H73.0715V22.081H77.9121L77.3838 22.6123C77.3838 22.1738 77.3224 21.7984 77.1995 21.4863C77.0767 21.1743 76.8883 20.9339 76.6344 20.7652C76.3887 20.5965 76.0774 20.5121 75.7007 20.5121C75.3239 20.5121 75.0045 20.6007 74.7424 20.7778C74.4803 20.955 74.2796 21.2122 74.1404 21.5496C74.0093 21.8785 73.9438 22.275 73.9438 22.7389C73.9438 23.169 74.0093 23.5528 74.1404 23.8902C74.2714 24.2191 74.4721 24.4806 74.7424 24.6746C75.0127 24.8602 75.3567 24.9529 75.7744 24.9529C76.1921 24.9529 76.532 24.8686 76.7941 24.6999C77.0562 24.5228 77.2241 24.3077 77.2978 24.0547H78.8704C78.7721 24.527 78.5837 24.9403 78.3052 25.2945C78.0268 25.6488 77.6705 25.9229 77.2364 26.1169C76.8105 26.3109 76.3232 26.4079 75.7744 26.4079Z" fill="#25CE51"/>
<path d="M80.899 26.1675V19.2976H82.2504V22.2454H82.1275C82.1275 21.5454 82.2176 20.9634 82.3978 20.4995C82.578 20.0272 82.8442 19.6729 83.1964 19.4367C83.5568 19.2006 84.0031 19.0825 84.5355 19.0825H84.6092C85.4037 19.0825 86.0057 19.3482 86.4152 19.8796C86.8248 20.4025 87.0295 21.1869 87.0295 22.2328V26.1675H85.3218V22.081C85.3218 21.6592 85.203 21.3176 84.9655 21.0562C84.7362 20.7947 84.4168 20.664 84.0072 20.664C83.5895 20.664 83.2496 20.7989 82.9875 21.0688C82.7336 21.3303 82.6067 21.6845 82.6067 22.1316V26.1675H80.899Z" fill="#25CE51"/>
<path d="M92.2563 26.2561C91.642 26.2561 91.1342 26.1759 90.7329 26.0157C90.3397 25.847 90.0449 25.5687 89.8483 25.1807C89.6517 24.7842 89.5535 24.2529 89.5535 23.5865L89.5657 17.3618H91.1629L91.1506 23.7004C91.1506 24.0378 91.2366 24.2993 91.4086 24.4848C91.5888 24.6619 91.8427 24.7505 92.1703 24.7505H93.2146V26.2561H92.2563ZM88.4969 20.5881V19.2976H93.2146V20.5881H88.4969Z" fill="#25CE51"/>
<path d="M95.4587 26.1675V19.2976H97.1665V26.1675H95.4587ZM94.525 20.6134V19.2976H97.1665V20.6134H94.525ZM96.0853 18.4752C95.7495 18.4752 95.4997 18.3866 95.3359 18.2095C95.1803 18.024 95.1025 17.7962 95.1025 17.5263C95.1025 17.2395 95.1803 17.0076 95.3359 16.8305C95.4997 16.6533 95.7495 16.5648 96.0853 16.5648C96.4211 16.5648 96.6668 16.6533 96.8225 16.8305C96.9781 17.0076 97.0559 17.2395 97.0559 17.5263C97.0559 17.7962 96.9781 18.024 96.8225 18.2095C96.6668 18.3866 96.4211 18.4752 96.0853 18.4752Z" fill="#25CE51"/>
<path d="M102.525 26.2561C101.911 26.2561 101.403 26.1759 101.002 26.0157C100.609 25.847 100.314 25.5687 100.117 25.1807C99.9209 24.7842 99.8226 24.2529 99.8226 23.5865L99.8348 17.3618H101.432L101.42 23.7004C101.42 24.0378 101.506 24.2993 101.678 24.4848C101.858 24.6619 102.112 24.7505 102.439 24.7505H103.484V26.2561H102.525ZM98.766 20.5881V19.2976H103.484V20.5881H98.766Z" fill="#25CE51"/>
<path d="M105.212 28.875V27.3694H106.465C106.703 27.3694 106.899 27.3357 107.055 27.2682C107.219 27.2092 107.354 27.108 107.46 26.9646C107.567 26.8296 107.649 26.6398 107.706 26.3952L109.5 19.2976H111.134L109.156 26.7748C109.025 27.2893 108.84 27.6984 108.603 28.002C108.365 28.3141 108.058 28.5376 107.681 28.6726C107.313 28.8075 106.854 28.875 106.305 28.875H105.212ZM107.288 26.0157V24.624H108.713V26.0157H107.288ZM106.711 26.0157L104.548 19.2976H106.268L108.32 26.0157H106.711Z" fill="#25CE51"/>
<path d="M115.192 26.1675L118.251 16.9317H121.101L124.247 26.1675H122.453L119.787 18.1589L120.413 18.4372H118.878L119.517 18.1589L116.937 26.1675H115.192ZM117.33 23.7131L117.883 22.1948H121.519L122.06 23.7131H117.33Z" fill="#25CE51"/>
<path d="M128.444 28.875C128.124 28.875 127.797 28.8623 127.461 28.837C127.133 28.8117 126.826 28.778 126.539 28.7358V27.2682C126.834 27.302 127.15 27.3315 127.485 27.3568C127.821 27.3905 128.137 27.4074 128.431 27.4074C128.98 27.4074 129.422 27.3399 129.758 27.205C130.102 27.07 130.352 26.8549 130.508 26.5597C130.671 26.2729 130.753 25.906 130.753 25.459V24.1053L131.122 23.2449C131.097 23.8775 130.97 24.4173 130.741 24.8644C130.512 25.303 130.201 25.6404 129.807 25.8765C129.414 26.1043 128.96 26.2181 128.444 26.2181C127.985 26.2181 127.567 26.1296 127.191 25.9524C126.822 25.7753 126.503 25.5307 126.232 25.2186C125.97 24.9065 125.765 24.5396 125.618 24.1179C125.471 23.6962 125.397 23.2449 125.397 22.7642V22.4985C125.397 22.0177 125.471 21.5707 125.618 21.1574C125.774 20.7357 125.991 20.3688 126.269 20.0567C126.548 19.7446 126.879 19.5042 127.264 19.3355C127.649 19.1668 128.075 19.0825 128.542 19.0825C129.091 19.0825 129.566 19.2048 129.967 19.4494C130.377 19.694 130.696 20.0482 130.925 20.5121C131.155 20.976 131.282 21.5454 131.306 22.2201L131.011 22.2707V19.2976H132.363V25.3578C132.363 26.1928 132.224 26.8676 131.945 27.3821C131.667 27.8966 131.237 28.2719 130.655 28.5081C130.082 28.7527 129.345 28.875 128.444 28.875ZM128.935 24.7125C129.263 24.7125 129.562 24.6366 129.832 24.4848C130.102 24.333 130.319 24.1137 130.483 23.8269C130.647 23.5401 130.729 23.1943 130.729 22.7895V22.3467C130.729 21.9587 130.643 21.6297 130.471 21.3598C130.307 21.0899 130.09 20.8875 129.82 20.7525C129.549 20.6091 129.255 20.5374 128.935 20.5374C128.575 20.5374 128.255 20.626 127.977 20.8031C127.707 20.9718 127.494 21.2122 127.338 21.5243C127.182 21.8364 127.105 22.2075 127.105 22.6377C127.105 23.0594 127.182 23.4263 127.338 23.7384C127.494 24.0504 127.707 24.2908 127.977 24.4595C128.255 24.6282 128.575 24.7125 128.935 24.7125Z" fill="#25CE51"/>
<path d="M137.702 26.4079C137.129 26.4079 136.625 26.3067 136.191 26.1042C135.765 25.9018 135.409 25.6319 135.122 25.2945C134.844 24.9487 134.631 24.5649 134.484 24.1432C134.344 23.7215 134.275 23.2913 134.275 22.8527V22.6123C134.275 22.1569 134.344 21.7183 134.484 21.2966C134.631 20.8664 134.844 20.4868 135.122 20.1579C135.409 19.8205 135.761 19.5548 136.179 19.3608C136.597 19.1584 137.08 19.0572 137.629 19.0572C138.349 19.0572 138.951 19.2217 139.435 19.5506C139.926 19.8711 140.295 20.2971 140.54 20.8284C140.786 21.3514 140.909 21.9165 140.909 22.5238V23.1564H135V22.081H139.84L139.312 22.6123C139.312 22.1738 139.25 21.7984 139.128 21.4863C139.005 21.1743 138.816 20.9339 138.562 20.7652C138.317 20.5965 138.005 20.5121 137.629 20.5121C137.252 20.5121 136.932 20.6007 136.67 20.7778C136.408 20.955 136.208 21.2122 136.068 21.5496C135.937 21.8785 135.872 22.275 135.872 22.7389C135.872 23.169 135.937 23.5528 136.068 23.8902C136.199 24.2191 136.4 24.4806 136.67 24.6746C136.941 24.8602 137.285 24.9529 137.702 24.9529C138.12 24.9529 138.46 24.8686 138.722 24.6999C138.984 24.5228 139.152 24.3077 139.226 24.0547H140.798C140.7 24.527 140.512 24.9403 140.233 25.2945C139.955 25.6488 139.598 25.9229 139.164 26.1169C138.738 26.3109 138.251 26.4079 137.702 26.4079Z" fill="#25CE51"/>
<path d="M142.827 26.1675V19.2976H144.178V22.2454H144.056C144.056 21.5454 144.146 20.9634 144.326 20.4995C144.506 20.0272 144.772 19.6729 145.124 19.4367C145.485 19.2006 145.931 19.0825 146.464 19.0825H146.537C147.332 19.0825 147.934 19.3482 148.343 19.8796C148.753 20.4025 148.958 21.1869 148.958 22.2328V26.1675H147.25V22.081C147.25 21.6592 147.131 21.3176 146.894 21.0562C146.664 20.7947 146.345 20.664 145.935 20.664C145.518 20.664 145.178 20.7989 144.916 21.0688C144.662 21.3303 144.535 21.6845 144.535 22.1316V26.1675H142.827Z" fill="#25CE51"/>
<path d="M154.246 26.4079C153.664 26.4079 153.161 26.3067 152.735 26.1042C152.317 25.9018 151.965 25.6319 151.678 25.2945C151.4 24.9572 151.191 24.5776 151.051 24.1559C150.912 23.7341 150.843 23.304 150.843 22.8654V22.625C150.843 22.1611 150.912 21.7183 151.051 21.2966C151.199 20.8664 151.416 20.4868 151.703 20.1579C151.989 19.8205 152.341 19.5548 152.759 19.3608C153.185 19.1584 153.677 19.0572 154.233 19.0572C154.815 19.0572 155.335 19.1753 155.794 19.4114C156.252 19.6392 156.617 19.9597 156.887 20.373C157.166 20.7863 157.321 21.267 157.354 21.8153H155.695C155.654 21.461 155.507 21.1658 155.253 20.9297C155.007 20.6935 154.668 20.5754 154.233 20.5754C153.857 20.5754 153.541 20.6682 153.287 20.8537C153.042 21.0393 152.857 21.2966 152.735 21.6255C152.612 21.946 152.55 22.3171 152.55 22.7389C152.55 23.1437 152.608 23.5106 152.722 23.8396C152.845 24.1685 153.029 24.4258 153.275 24.6113C153.529 24.7969 153.853 24.8897 154.246 24.8897C154.541 24.8897 154.794 24.8349 155.007 24.7252C155.22 24.6156 155.388 24.4637 155.511 24.2697C155.642 24.0757 155.724 23.8564 155.757 23.6118H157.415C157.383 24.1685 157.223 24.6577 156.936 25.0795C156.658 25.4927 156.285 25.8175 155.818 26.0536C155.36 26.2898 154.835 26.4079 154.246 26.4079Z" fill="#25CE51"/>
<path d="M159.078 28.875V27.3694H160.331C160.569 27.3694 160.766 27.3357 160.921 27.2682C161.085 27.2092 161.22 27.108 161.327 26.9646C161.433 26.8296 161.515 26.6398 161.572 26.3952L163.366 19.2976H165L163.022 26.7748C162.891 27.2893 162.707 27.6984 162.469 28.002C162.232 28.3141 161.925 28.5376 161.548 28.6726C161.179 28.8075 160.721 28.875 160.172 28.875H159.078ZM161.155 26.0157V24.624H162.58V26.0157H161.155ZM160.577 26.0157L158.415 19.2976H160.135L162.187 26.0157H160.577Z" fill="#25CE51"/>
</svg>
