<svg width="100%" style="" viewBox="0 0 4468 913" fill="none" xmlns="http://www.w3.org/2000/svg">
<path d="M1030.97 551.062L260.785 913L0 362.166L770.976 0L1030.97 551.062Z" fill="#2CB44F"/>
<path d="M1718.29 551.062L948.1 913L687.315 362.166L1458.29 0L1718.29 551.062Z" fill="#2CB44F"/>
<path d="M2405.6 551.062L1635.42 913L1374.63 362.166L2145.61 0L2405.6 551.062Z" fill="#2CB44F"/>
<path d="M3092.91 551.062L2322.73 913L2061.94 362.166L2832.92 0L3092.91 551.062Z" fill="#2CB44F"/>
<path d="M3780.23 551.062L3010.04 913L2749.26 362.166L3520.24 0L3780.23 551.062Z" fill="#2CB44F"/>
<path d="M4467.55 551.062L3697.36 913L3436.58 362.166L4207.55 0L4467.55 551.062Z" fill="#2CB44F"/>
</svg>