<svg width="119" height="32" viewBox="0 0 119 32" fill="none" xmlns="http://www.w3.org/2000/svg">
<path d="M32.6399 22.016V16.256H36.9599C37.7759 16.256 38.4839 16.1 39.0839 15.788C39.6839 15.452 40.1519 14.984 40.4879 14.384C40.8239 13.784 40.9919 13.076 40.9919 12.26C40.9919 11.42 40.8239 10.7 40.4879 10.1C40.1519 9.49998 39.6839 9.04398 39.0839 8.73198C38.4839 8.41998 37.7759 8.26398 36.9599 8.26398H32.6399V2.50398H36.7799C39.0359 2.50398 40.9799 2.88798 42.6119 3.65598C44.2679 4.39998 45.5399 5.47998 46.4279 6.89598C47.3159 8.31198 47.7599 10.004 47.7599 11.972V12.548C47.7599 14.492 47.3159 16.172 46.4279 17.588C45.5399 19.004 44.2679 20.096 42.6119 20.864C40.9799 21.632 39.0359 22.016 36.7799 22.016H32.6399ZM26.6639 29V2.50398H33.3599V29H26.6639Z" fill="#FFFCF2"/>
<path d="M49.1921 29V2.50398H55.8881V29H49.1921ZM65.0321 29L57.6521 17.84H64.9241L72.7361 29H65.0321ZM54.1961 20.936V15.788H60.4961C61.2881 15.788 61.9721 15.632 62.5481 15.32C63.1241 15.008 63.5681 14.564 63.8801 13.988C64.2161 13.412 64.3841 12.74 64.3841 11.972C64.3841 11.18 64.2161 10.496 63.8801 9.91998C63.5681 9.34398 63.1241 8.89998 62.5481 8.58798C61.9721 8.27598 61.2881 8.11998 60.4961 8.11998H54.1961V2.50398H60.1001C62.3801 2.50398 64.3481 2.85198 66.0041 3.54798C67.6601 4.21998 68.9321 5.22798 69.8201 6.57198C70.7081 7.89198 71.1521 9.53598 71.1521 11.504V12.08C71.1521 14.048 70.6961 15.692 69.7841 17.012C68.8961 18.308 67.6241 19.292 65.9681 19.964C64.3361 20.612 62.3801 20.936 60.1001 20.936H54.1961Z" fill="#FFFCF2"/>
<path d="M79.166 29L71.534 2.71998H78.446L84.17 24.284L82.91 23.672H86.366L85.07 24.284L90.398 2.71998H97.094L89.966 29H79.166Z" fill="#FFFCF2"/>
<path d="M107.757 29.72C105.309 29.72 103.245 29.336 101.565 28.568C99.9088 27.8 98.6488 26.756 97.7848 25.436C96.9448 24.092 96.5247 22.556 96.5247 20.828H103.005C103.005 21.452 103.173 22.028 103.509 22.556C103.869 23.06 104.397 23.456 105.093 23.744C105.789 24.032 106.677 24.176 107.757 24.176C108.693 24.176 109.485 24.056 110.133 23.816C110.805 23.576 111.309 23.24 111.645 22.808C112.005 22.376 112.185 21.86 112.185 21.26C112.185 20.492 111.861 19.904 111.213 19.496C110.565 19.064 109.473 18.788 107.937 18.668L106.245 18.524C103.533 18.284 101.373 17.432 99.7647 15.968C98.1567 14.504 97.3528 12.56 97.3528 10.136C97.3528 8.40798 97.7487 6.93198 98.5407 5.70798C99.3567 4.48398 100.497 3.54798 101.961 2.89998C103.425 2.25198 105.153 1.92798 107.145 1.92798C109.305 1.92798 111.129 2.28798 112.617 3.00798C114.129 3.72798 115.281 4.74798 116.073 6.06798C116.865 7.36398 117.261 8.87598 117.261 10.604H110.781C110.781 10.028 110.637 9.49998 110.349 9.01998C110.061 8.53998 109.641 8.16798 109.089 7.90398C108.561 7.61598 107.913 7.47198 107.145 7.47198C106.425 7.47198 105.813 7.59198 105.309 7.83198C104.829 8.04798 104.457 8.35998 104.193 8.76798C103.953 9.17598 103.833 9.63198 103.833 10.136C103.833 10.808 104.061 11.384 104.517 11.864C104.973 12.344 105.765 12.632 106.893 12.728L108.585 12.872C110.553 13.04 112.293 13.472 113.805 14.168C115.317 14.84 116.505 15.764 117.369 16.94C118.233 18.116 118.665 19.556 118.665 21.26C118.665 22.964 118.221 24.452 117.333 25.724C116.469 26.996 115.221 27.98 113.589 28.676C111.981 29.372 110.037 29.72 107.757 29.72Z" fill="#FFFCF2"/>
<path d="M18 29L5.00001 16L18 3.00001" stroke="#FFFCF2" stroke-width="7"/>
</svg>
