<svg width="225" height="225" viewBox="0 0 225 225" fill="none" xmlns="http://www.w3.org/2000/svg">
<path d="M35.6418 55.0046L26.7524 43.7153L39.9448 49.6134L41.9572 47.0892L31.453 33.2607L30.3598 34.6272L39.9747 47.0196L39.4877 47.6308L25.8332 41.4892L25.4158 42.011L24.3823 43.3128L33.6443 54.9599L33.1573 55.5711L18.6829 49.2705L17.5649 50.6767L33.6294 57.5288L35.6418 55.0046Z" fill="white"/>
<path d="M41.644 38.5178L41.8527 38.7613C42.362 39.3639 42.9765 39.869 43.6663 40.252C44.3708 40.6402 45.1404 40.8962 45.9371 41.0072C46.7694 41.1188 47.6157 41.0545 48.4216 40.8184C50.2408 40.2305 51.756 38.9509 52.6401 37.2557C53.0092 36.5039 53.2158 35.6828 53.2464 34.8458C53.2741 34.0437 53.1458 33.2438 52.8687 32.4906C52.6037 31.749 52.2082 31.0607 51.701 30.4583L51.4923 30.2148C50.98 29.6113 50.3621 29.1062 49.6688 28.7241C48.9548 28.3196 48.1668 28.0628 47.3516 27.9689C46.5364 27.875 45.7107 27.946 44.9235 28.1776C44.033 28.4589 43.2071 28.9138 42.4933 29.5158C41.7795 30.1179 41.1919 30.8554 40.7645 31.6856C40.4076 32.4257 40.2006 33.229 40.1554 34.0493C40.1102 34.8697 40.2277 35.6909 40.5011 36.4657C40.7512 37.2148 41.1387 37.9108 41.644 38.5178ZM41.9868 32.8434C42.2971 32.0156 42.8145 31.2813 43.4896 30.7106C44.1647 30.1399 44.9749 29.7519 45.8427 29.5838C46.6525 29.4587 47.4811 29.5655 48.2327 29.8918C49.0263 30.2379 49.7262 30.7676 50.275 31.4372C50.8396 32.0917 51.2429 32.8694 51.4526 33.7079C51.6521 34.502 51.6297 35.3356 51.388 36.1179C51.0789 36.9606 50.5558 37.7084 49.8702 38.2877C49.1846 38.8671 48.36 39.258 47.4775 39.4222C46.6661 39.5283 45.8411 39.4097 45.0924 39.0793C44.3093 38.7297 43.6172 38.2043 43.0701 37.5439C42.491 36.8862 42.0786 36.0988 41.8676 35.2483C41.6801 34.4514 41.7215 33.6178 41.9868 32.8434Z" fill="white"/>
<path d="M55.3485 23.5711C55.4983 23.0458 55.7512 22.5555 56.0924 22.129C56.4337 21.7024 56.8564 21.3481 57.3361 21.0867L57.9373 20.6991L57.0827 19.3823L56.7547 19.591C55.3485 20.5053 54.5485 21.5289 54.3547 22.6717C54.2441 23.5194 54.3767 24.3811 54.7373 25.1562L52.8492 22.2792L51.6914 23.0345L58.3149 33.2555L59.7559 32.3164L56.0988 26.6618C55.7722 26.2236 55.5373 25.724 55.4084 25.193C55.2795 24.6619 55.2591 24.1102 55.3485 23.5711Z" fill="white"/>
<path d="M57.4202 15.6459L58.9854 14.8061L66.2897 28.3961L67.8102 27.5762L59.845 12.749L58.3196 13.5639L56.7544 14.4086L57.4202 15.6459Z" fill="white"/>
<path d="M74.2204 6.34411L76.7446 12.6745C76.0326 12.0897 75.1728 11.7131 74.2602 11.5863C73.318 11.4684 72.3613 11.6021 71.4875 11.9739C70.7247 12.2641 70.0351 12.7186 69.4675 13.3051C68.8999 13.8915 68.4682 14.5957 68.2031 15.3676C67.9445 16.1146 67.8266 16.9031 67.8553 17.6931C67.8811 18.5061 68.0492 19.3083 68.3522 20.0632L68.4714 20.3614C68.7764 21.1341 69.2173 21.8459 69.7733 22.4632C70.3064 23.0555 70.9471 23.5411 71.6615 23.8942C72.3672 24.2458 73.1394 24.4439 73.9273 24.4756C74.7647 24.508 75.599 24.357 76.372 24.0334C77.249 23.6976 78.0279 23.1475 78.6378 22.4334C79.2401 21.7101 79.6214 20.8286 79.7359 19.8943C79.7617 19.7099 79.775 19.524 79.7757 19.3378L80.7694 21.852L82.0514 21.3551L75.8254 5.70312L74.2204 6.34411ZM78.7819 19.134C78.6882 19.8889 78.3834 20.6019 77.9024 21.1912C77.3985 21.7919 76.7506 22.2552 76.0192 22.5377C75.2553 22.8582 74.4165 22.9563 73.5993 22.821C72.8117 22.6806 72.0796 22.3206 71.4875 21.7825C70.8523 21.1702 70.3538 20.4303 70.0249 19.6116C69.6961 18.7929 69.5443 17.9138 69.5795 17.0322C69.6238 16.2314 69.8905 15.4588 70.3497 14.8012C70.8361 14.1194 71.5166 13.6 72.3024 13.3105C73.0325 13.001 73.8303 12.8863 74.618 12.9776C75.3577 13.0628 76.0603 13.348 76.6502 13.8024C77.2727 14.2996 77.7499 14.9553 78.0316 15.7005L78.439 16.7291C78.7623 17.4868 78.8805 18.3162 78.7819 19.134Z" fill="white"/>
<path d="M88.2823 19.5414V19.5464L89.7184 19.2482L90.6774 19.0495L90.8662 8.20236L95.6711 18.0259L96.0537 17.9464L98.0611 17.529L98.4239 17.4544L99.0152 4.87817L97.4549 5.20115L96.9928 16.3166L96.5009 16.4159L91.8003 6.76635L89.4252 7.2533L89.2761 17.9016L88.7792 18.006L83.5867 8.0533L81.9619 8.39118L87.8749 19.6259L88.2823 19.5414Z" fill="white"/>
<path d="M104.441 2.40374C104.611 2.40523 104.778 2.37054 104.934 2.302C105.089 2.23345 105.227 2.13262 105.34 2.00623C105.517 1.75539 105.602 1.45126 105.58 1.14525C105.558 0.839236 105.431 0.55011 105.221 0.326743C105.092 0.216444 104.942 0.134987 104.779 0.087848C104.616 0.0407093 104.445 0.0289821 104.277 0.0534545C104.106 0.0530776 103.936 0.0887126 103.78 0.158049C103.623 0.227386 103.483 0.328875 103.368 0.455935C103.179 0.705683 103.087 1.01485 103.108 1.3269C103.129 1.63894 103.262 1.933 103.482 2.1553C103.616 2.26107 103.77 2.3378 103.935 2.38058C104.1 2.42335 104.273 2.43124 104.441 2.40374Z" fill="white"/>
<path d="M105.082 16.873L106.786 16.7538L105.936 4.58496L104.232 4.70422L102.274 4.83838L102.374 6.21973L104.327 6.0806L105.082 16.873Z" fill="white"/>
<path d="M120.873 14.6967C120.972 14.5361 121.061 14.3702 121.142 14.1998L121.013 16.9029L122.394 16.9675L123.189 0.152744L121.465 0.0732422L121.152 6.87566C120.741 6.06371 120.12 5.37718 119.353 4.8881C118.541 4.39391 117.615 4.11989 116.665 4.09308C115.849 4.03999 115.032 4.16642 114.27 4.46346C113.509 4.76051 112.822 5.22094 112.257 5.81232C111.707 6.38645 111.271 7.06124 110.975 7.79987C110.663 8.53966 110.481 9.32823 110.439 10.1303V10.4533C110.395 11.282 110.501 12.1118 110.752 12.9029C110.993 13.6611 111.373 14.3673 111.875 14.9849C112.371 15.6047 112.992 16.1127 113.698 16.4756C114.448 16.8523 115.27 17.0609 116.108 17.0867C117.048 17.1524 117.989 16.9816 118.846 16.5898C119.689 16.1656 120.393 15.5086 120.873 14.6967ZM118.662 15.1141C117.955 15.4519 117.174 15.604 116.392 15.5563C115.568 15.5375 114.766 15.2842 114.081 14.8259C113.42 14.367 112.903 13.7294 112.59 12.9874C112.268 12.1655 112.122 11.2849 112.163 10.403C112.205 9.52106 112.431 8.65775 112.829 7.86944C113.201 7.15826 113.763 6.56468 114.454 6.15517C115.181 5.74054 116.014 5.55036 116.849 5.60859C117.639 5.63655 118.41 5.86388 119.09 6.26945C119.723 6.66127 120.238 7.21769 120.58 7.87938C120.943 8.58761 121.104 9.38151 121.047 10.175L120.998 11.2781C120.974 12.1033 120.736 12.9082 120.307 13.6135C119.916 14.2587 119.349 14.7792 118.672 15.1141H118.662Z" fill="white"/>
<path d="M128.858 17.882C129.621 18.4248 130.495 18.7914 131.417 18.9553C132.279 19.1489 133.173 19.1624 134.041 18.995C134.813 18.8395 135.536 18.4984 136.147 18.0013C136.759 17.5045 137.232 16.8573 137.519 16.123L135.934 15.8199C135.612 16.47 135.064 16.9806 134.393 17.2559C133.556 17.5614 132.652 17.6339 131.777 17.4659C130.902 17.2979 130.089 16.8956 129.424 16.3019C128.873 15.7356 128.503 15.0176 128.361 14.2398C128.226 13.4872 128.226 12.7167 128.361 11.9641L138.175 13.9516L138.359 13.0721C138.559 12.1059 138.537 11.1068 138.294 10.1504C138.043 9.1964 137.542 8.32665 136.843 7.63118C136.02 6.84805 134.982 6.32891 133.862 6.14051C132.982 5.93819 132.068 5.93819 131.188 6.14051C130.418 6.3288 129.698 6.68513 129.082 7.18398C128.474 7.67066 127.968 8.27161 127.591 8.95291C127.208 9.63537 126.933 10.3728 126.776 11.1392L126.711 11.4572C126.552 12.2317 126.514 13.0262 126.597 13.8125C126.679 14.5863 126.905 15.338 127.263 16.0286C127.644 16.7615 128.19 17.396 128.858 17.882ZM129.355 9.31067C129.792 8.67259 130.402 8.17265 131.114 7.86969C131.894 7.55082 132.755 7.48818 133.573 7.69081C134.361 7.81957 135.094 8.17727 135.68 8.71937C136.197 9.22601 136.556 9.87146 136.714 10.5777C136.845 11.1579 136.875 11.7563 136.803 12.3467L128.684 10.692C128.85 10.203 129.08 9.73836 129.37 9.31067H129.355Z" fill="white"/>
<path d="M147.303 23.3029L151.174 13.2011L151.666 11.9092L148.242 10.5974L147.75 11.8893L149.579 12.5949L145.708 22.6917L147.303 23.3029Z" fill="white"/>
<path d="M151.228 9.32044C151.384 9.39254 151.553 9.42989 151.725 9.42989C151.897 9.42989 152.066 9.39254 152.222 9.32044C152.488 9.16757 152.694 8.92722 152.804 8.64014C152.913 8.35305 152.92 8.03691 152.823 7.7453C152.753 7.59141 152.651 7.45446 152.523 7.34382C152.395 7.23319 152.245 7.15148 152.083 7.10431C151.926 7.03442 151.757 6.99829 151.586 6.99829C151.415 6.99829 151.245 7.03442 151.089 7.10431C150.818 7.25122 150.608 7.49025 150.498 7.77821C150.388 8.06617 150.384 8.38408 150.488 8.67448C150.56 8.82751 150.663 8.96394 150.79 9.07513C150.918 9.18631 151.067 9.26985 151.228 9.32044Z" fill="white"/>
<path d="M152.913 25.6779L156.267 19.1587C156.469 18.7192 156.758 18.3247 157.115 17.9986C157.473 17.6726 157.892 17.4216 158.349 17.2606C158.805 17.1163 159.287 17.0678 159.763 17.1183C160.239 17.1687 160.7 17.317 161.116 17.5538C161.532 17.7392 161.902 18.0132 162.201 18.3565C162.499 18.6997 162.719 19.1041 162.846 19.5413C163.061 20.4515 162.921 21.4095 162.453 22.2196L159.044 28.8431L160.565 29.6232L163.8 23.3276C164.595 21.784 164.878 20.4125 164.649 19.2134C164.416 18.0159 163.621 17.0618 162.254 16.3612L162.19 16.3264C161.404 15.8837 160.505 15.6831 159.606 15.7501C158.783 15.8483 158.01 16.195 157.39 16.7438C157.215 16.8997 157.049 17.0656 156.893 17.2407L158.205 14.6867L156.977 14.0557L151.377 24.8879L152.913 25.6779Z" fill="white"/>
<path d="M170.095 36.1276L176.326 41.1462L177.325 39.904L171.094 34.8854L174.969 30.0705L180.589 34.5972L181.573 33.3749L175.953 28.8482L179.655 24.252L185.687 29.1115L186.686 27.8693L180.326 22.7514L179.287 21.9116L168.729 35.0295L170.095 36.1276Z" fill="white"/>
<path d="M190.815 57.1858L200.117 49.2902L199.014 47.9883L197.792 46.5474L196.733 47.4418L197.956 48.8827L189.712 55.8839L190.815 57.1858Z" fill="white"/>
<path d="M200.977 46.8058C201.074 46.945 201.2 47.0615 201.347 47.1472C201.494 47.233 201.657 47.286 201.826 47.3027C202.132 47.2955 202.427 47.1835 202.66 46.9854C202.893 46.7874 203.052 46.5152 203.108 46.2145C203.122 46.046 203.098 45.8766 203.04 45.7179C202.982 45.5592 202.89 45.415 202.77 45.2952C202.67 45.1561 202.54 45.0398 202.391 44.9542C202.242 44.8686 202.077 44.8154 201.906 44.7983C201.598 44.7989 201.3 44.9085 201.066 45.1077C200.831 45.3069 200.674 45.5829 200.624 45.8865C200.616 46.0558 200.643 46.2249 200.704 46.3831C200.765 46.5413 200.858 46.6852 200.977 46.8058Z" fill="white"/>
<path d="M186.308 35.0543L187.456 36.4108L179.163 43.4518L180.236 44.7188L188.534 37.6829L192.51 42.3785L184.211 49.4244L185.285 50.6865L193.593 43.6455L195.953 46.4231L196.947 45.5685L194.591 42.7959L195.645 41.8965C195.832 41.7158 196.055 41.5751 196.298 41.4829C196.541 41.3906 196.801 41.3488 197.061 41.3598C197.328 41.3944 197.584 41.4827 197.816 41.6194C198.047 41.756 198.249 41.9382 198.408 42.1549L199.511 43.4567L200.634 42.5027L199.739 41.4493C198.885 40.4555 198.005 39.8841 197.111 39.7748C196.216 39.6655 195.277 40.0282 194.308 40.858L193.513 41.5288L189.538 36.8332L190.701 35.8394C190.889 35.659 191.111 35.5182 191.354 35.4252C191.597 35.3321 191.857 35.2888 192.117 35.2978C192.383 35.3336 192.639 35.423 192.87 35.5605C193.1 35.698 193.301 35.8807 193.459 36.0978L194.522 37.345L195.645 36.391L194.795 35.3972C193.941 34.4034 193.061 33.832 192.167 33.7276C191.272 33.6233 190.333 33.981 189.364 34.8059L188.45 35.5562L187.312 34.2046L186.308 35.0543Z" fill="white"/>
<path d="M200.008 56.0033C199.242 56.1662 198.504 56.4443 197.822 56.8281L197.543 56.9871C196.856 57.3787 196.231 57.8711 195.69 58.448C195.159 59.0164 194.74 59.6808 194.458 60.4057C194.167 61.1565 194.053 61.9641 194.125 62.7659C194.215 63.699 194.512 64.6003 194.994 65.4044C195.416 66.1749 195.991 66.8512 196.684 67.392C197.302 67.8742 198.029 68.1998 198.8 68.341C199.574 68.4788 200.371 68.412 201.111 68.1473L200.316 66.7411C199.614 66.9293 198.867 66.8514 198.219 66.5224C197.398 66.114 196.731 65.4519 196.316 64.6342C195.856 63.89 195.632 63.0237 195.675 62.1498C195.743 61.3621 196.042 60.6121 196.535 59.9933C197.013 59.399 197.594 58.8943 198.249 58.5026L203.183 67.223L203.963 66.7808C204.827 66.293 205.566 65.6129 206.125 64.7932C206.683 63.9798 207.011 63.0303 207.074 62.0454C207.122 60.9199 206.833 59.8055 206.244 58.8455C205.816 58.0497 205.213 57.3616 204.48 56.8331C203.833 56.3763 203.093 56.0675 202.313 55.9287C201.547 55.8043 200.764 55.8296 200.008 56.0033ZM204.917 59.6256C205.337 60.3052 205.547 61.0931 205.523 61.8914C205.48 62.6095 205.23 63.2998 204.803 63.879C204.451 64.3596 204.019 64.7764 203.526 65.1113L199.441 57.9014C199.919 57.7089 200.421 57.5803 200.932 57.5188C201.699 57.4249 202.478 57.5489 203.178 57.8765C203.927 58.2621 204.536 58.8741 204.917 59.6256Z" fill="white"/>
<path d="M217.303 72.6481L201.492 78.428L202.094 80.0754L217.905 74.2955L217.303 72.6481Z" fill="white"/>
<path d="M212.971 91.1532L205.737 92.9172L206.139 94.5768L213.016 92.9023C214.706 92.4915 215.928 91.8058 216.683 90.8451C217.439 89.8845 217.634 88.6572 217.27 87.1632V87.0986C217.092 86.2151 216.656 85.4042 216.017 84.7682C215.405 84.2089 214.638 83.8486 213.816 83.7346C213.581 83.6993 213.344 83.6794 213.106 83.675L215.893 82.9943L215.565 81.6477L203.709 84.5396L204.122 86.2191L211.247 84.4849C211.711 84.3476 212.198 84.3054 212.679 84.3609C213.16 84.4164 213.624 84.5685 214.045 84.8079C214.453 85.0588 214.805 85.3914 215.078 85.7847C215.352 86.178 215.542 86.6237 215.635 87.0936C215.767 87.528 215.803 87.9858 215.74 88.4354C215.677 88.885 215.518 89.3156 215.272 89.6973C214.72 90.4595 213.897 90.9806 212.971 91.1532Z" fill="white"/>
<path d="M215.392 97.2002C214.605 96.9897 213.788 96.9174 212.977 96.9866L212.654 97.0164C211.827 97.0779 211.019 97.2901 210.269 97.6425C209.545 97.9805 208.893 98.4526 208.346 99.0338C207.803 99.6029 207.386 100.28 207.123 101.021C206.849 101.819 206.75 102.667 206.835 103.506C206.9 104.447 207.199 105.357 207.705 106.154C208.22 106.941 208.952 107.562 209.812 107.943C209.981 108.02 210.155 108.087 210.333 108.142L207.635 108.37L207.754 109.747L224.529 108.34L224.385 106.616L217.593 107.188C218.356 106.68 218.964 105.971 219.352 105.141C219.741 104.273 219.893 103.318 219.794 102.373C219.734 101.527 219.486 100.706 219.069 99.9679C218.675 99.2865 218.145 98.6929 217.513 98.2238C216.874 97.756 216.155 97.4091 215.392 97.2002ZM218.298 102.746C218.377 103.532 218.252 104.326 217.936 105.051C217.636 105.737 217.153 106.327 216.539 106.755C215.883 107.205 215.117 107.469 214.323 107.521L213.22 107.615C212.399 107.703 211.568 107.576 210.81 107.247C210.119 106.936 209.528 106.437 209.106 105.806C208.676 105.149 208.421 104.393 208.366 103.61C208.278 102.786 208.43 101.955 208.803 101.215C209.17 100.5 209.734 99.9055 210.428 99.5008C211.2 99.0729 212.053 98.8128 212.932 98.7375C213.812 98.6621 214.697 98.7732 215.531 99.0636C216.303 99.3395 216.977 99.8368 217.468 100.493C217.959 101.15 218.247 101.937 218.293 102.755L218.298 102.746Z" fill="white"/>
<path d="M218.288 115.103C217.725 114.57 217.064 114.151 216.34 113.871C215.612 113.591 214.844 113.423 214.065 113.374H213.742C212.955 113.314 212.163 113.38 211.396 113.568C210.637 113.748 209.919 114.07 209.28 114.517C208.626 114.985 208.085 115.595 207.7 116.301C206.879 117.942 206.728 119.837 207.277 121.588C207.522 122.341 207.947 123.023 208.514 123.575C209.087 124.115 209.788 124.498 210.552 124.688L210.666 123.078C209.977 122.845 209.398 122.368 209.036 121.737C208.624 120.946 208.434 120.059 208.485 119.17C208.537 118.28 208.829 117.421 209.329 116.683C209.82 116.063 210.484 115.603 211.237 115.362C211.964 115.127 212.726 115.025 213.488 115.059L212.798 124.986L213.692 125.051C214.676 125.124 215.663 124.971 216.579 124.604C217.495 124.234 218.293 123.622 218.889 122.835C219.551 121.921 219.924 120.831 219.963 119.704C220.045 118.806 219.923 117.9 219.605 117.056C219.313 116.317 218.864 115.651 218.288 115.103ZM218.437 119.6C218.409 120.399 218.15 121.172 217.692 121.826C217.257 122.403 216.666 122.843 215.988 123.093C215.429 123.299 214.839 123.408 214.244 123.416L214.82 115.148C215.32 115.251 215.804 115.418 216.261 115.645C216.953 115.991 217.533 116.525 217.935 117.185C218.352 117.918 218.528 118.762 218.437 119.6Z" fill="white"/>
<path d="M206.736 126.089L206.368 127.828L210.706 132.44L210.641 132.733L204.793 135.322L204.405 137.17L211.6 133.985L216.505 138.934L216.867 137.195L212.803 133.21L212.867 132.892L218.229 130.72L218.616 128.867L211.913 131.635L206.736 126.089Z" fill="white"/>
<path d="M201.608 150.064L200.922 151.575L205.011 153.041L206.691 151.789L206.502 147.451L204.882 147.649L205.493 151.088L204.673 151.684L201.608 150.064Z" fill="white"/>
<path d="M202.428 157.274L205.091 154.989L206.02 155.396L206.144 158.904L207.789 158.715L207.014 154.447L205.116 153.617L201.454 155.938L202.428 157.274Z" fill="white"/>
<path d="M208.619 152.459L211.556 150.571L210.601 149.25L207.307 152.057L207.526 154.144L211.357 156.151L212.003 154.621L208.728 153.463L208.619 152.459Z" fill="white"/>
<path d="M189.727 167.699L198.81 178.839L185.523 173.16L183.551 175.719L194.289 189.368L195.357 187.982L185.533 175.754L186.01 175.138L199.769 181.046L200.177 180.514L201.19 179.202L191.73 167.709L192.207 167.093L206.78 173.145L207.878 171.719L191.7 165.14L189.727 167.699Z" fill="white"/>
<path d="M184.013 184.265L183.799 184.022C182.741 182.815 181.274 182.042 179.68 181.85C178.845 181.751 177.999 181.827 177.196 182.074C176.295 182.365 175.467 182.845 174.766 183.48C174.037 184.108 173.451 184.884 173.047 185.756C172.692 186.514 172.5 187.339 172.485 188.176C172.473 188.978 172.613 189.776 172.898 190.526C173.179 191.255 173.588 191.928 174.105 192.514L174.319 192.757C174.839 193.354 175.464 193.85 176.162 194.223C176.872 194.607 177.65 194.848 178.453 194.934C179.289 195.019 180.134 194.936 180.937 194.69C181.833 194.405 182.656 193.931 183.352 193.299C184.063 192.698 184.636 191.95 185.032 191.107C185.385 190.352 185.58 189.532 185.603 188.698C185.629 187.888 185.498 187.081 185.215 186.322C184.948 185.567 184.54 184.869 184.013 184.265ZM183.769 189.945C183.473 190.778 182.967 191.522 182.3 192.104C181.634 192.686 180.829 193.087 179.963 193.269C179.157 193.405 178.329 193.312 177.573 193.001C176.774 192.675 176.064 192.164 175.501 191.51C174.928 190.87 174.512 190.107 174.284 189.279C174.073 188.488 174.082 187.655 174.309 186.869C174.58 186.004 175.098 185.237 175.799 184.663C176.457 184.052 177.279 183.648 178.165 183.5C178.973 183.379 179.8 183.482 180.555 183.798C181.343 184.146 182.045 184.663 182.61 185.313C183.175 185.964 183.59 186.731 183.824 187.56C184.032 188.351 184.013 189.184 183.769 189.965V189.945Z" fill="white"/>
<path d="M165.996 190.795L169.747 196.385C170.483 197.484 170.754 198.51 170.562 199.46C170.423 199.991 170.181 200.488 169.848 200.924C169.515 201.36 169.099 201.726 168.624 201.999L168.028 202.397L168.902 203.699L169.23 203.48C170.622 202.546 171.405 201.506 171.581 200.36C171.677 199.508 171.528 198.646 171.153 197.875L173.076 200.742L174.229 199.972L167.432 189.831L165.996 190.795Z" fill="white"/>
<path d="M168.624 207.42L167.074 208.29L159.541 194.824L158.031 195.664L166.249 210.357L167.76 209.517L169.31 208.648L168.624 207.42Z" fill="white"/>
<path d="M157.613 203.197L157.489 202.899C157.172 202.13 156.72 201.424 156.152 200.817C155.609 200.234 154.96 199.76 154.239 199.42C153.528 199.078 152.752 198.892 151.963 198.874C151.126 198.862 150.295 199.032 149.529 199.371C148.653 199.72 147.879 200.284 147.278 201.01C146.691 201.745 146.324 202.63 146.219 203.564C146.201 203.751 146.193 203.939 146.195 204.126L145.146 201.642L143.869 202.153L150.373 217.681L151.968 217.015L149.34 210.73C150.057 211.298 150.916 211.659 151.824 211.773C152.769 211.875 153.724 211.726 154.592 211.341C155.376 211.021 156.079 210.53 156.649 209.905C157.18 209.323 157.581 208.636 157.827 207.887C158.076 207.137 158.182 206.347 158.14 205.557C158.103 204.746 157.924 203.947 157.613 203.197ZM155.7 208.509C155.221 209.194 154.55 209.723 153.772 210.029C153.046 210.347 152.251 210.473 151.462 210.397C150.719 210.319 150.011 210.041 149.414 209.592C148.784 209.106 148.296 208.459 148.003 207.718L147.576 206.7C147.243 205.945 147.111 205.116 147.193 204.295C147.275 203.539 147.57 202.822 148.043 202.228C148.533 201.615 149.173 201.139 149.901 200.847C150.659 200.511 151.497 200.399 152.316 200.524C153.108 200.655 153.846 201.01 154.443 201.547C155.088 202.148 155.599 202.879 155.941 203.692C156.284 204.505 156.451 205.381 156.431 206.263C156.399 207.064 156.146 207.842 155.7 208.509Z" fill="white"/>
<path d="M137.693 204.047L135.641 204.504L135.308 204.578L135.298 215.43L130.329 205.686L128.868 206.014L127.944 206.223L127.586 206.302L127.204 218.889L128.759 218.541L129.037 207.42L129.524 207.311L134.389 216.881L136.754 216.355L136.724 205.701L137.221 205.592L142.577 215.455L144.197 215.092L138.095 203.952L137.693 204.047Z" fill="white"/>
<path d="M122.781 221.686C122.648 221.579 122.494 221.502 122.328 221.458C122.163 221.415 121.991 221.406 121.822 221.433C121.653 221.433 121.485 221.471 121.332 221.543C121.178 221.615 121.042 221.72 120.933 221.85C120.747 222.098 120.665 222.408 120.704 222.715C120.722 223.022 120.855 223.311 121.077 223.525C121.208 223.632 121.36 223.711 121.524 223.755C121.688 223.798 121.859 223.806 122.026 223.778C122.196 223.776 122.365 223.738 122.519 223.667C122.674 223.596 122.813 223.493 122.925 223.366C123.115 223.12 123.2 222.809 123.164 222.501C123.147 222.19 123.01 221.898 122.781 221.686Z" fill="white"/>
<path d="M121.872 217.776L120.938 206.998L119.238 207.147L120.292 219.301L123.944 218.983L123.825 217.602L121.872 217.776Z" fill="white"/>
<path d="M114.19 208.995C113.682 208.391 113.052 207.9 112.342 207.554C111.587 207.194 110.763 207 109.927 206.988C108.985 206.947 108.048 207.14 107.199 207.55C106.359 207.972 105.659 208.628 105.182 209.438C105.086 209.598 104.999 209.764 104.923 209.935L105.003 207.232L103.621 207.187L103.125 224.016L104.854 224.066L105.062 217.254C105.475 218.073 106.109 218.762 106.891 219.241C107.71 219.726 108.642 219.985 109.594 219.992C110.41 220.032 111.225 219.893 111.982 219.584C112.738 219.275 113.417 218.803 113.972 218.203C114.506 217.623 114.929 216.949 115.219 216.215C115.522 215.459 115.69 214.655 115.716 213.84V213.517C115.744 212.688 115.625 211.86 115.363 211.072C115.105 210.313 114.707 209.608 114.19 208.995ZM113.35 216.136C112.99 216.854 112.436 217.456 111.751 217.875C111.032 218.301 110.204 218.505 109.37 218.461C108.578 218.45 107.801 218.237 107.115 217.84C106.47 217.461 105.941 216.913 105.584 216.255C105.214 215.553 105.042 214.762 105.087 213.969L105.122 212.861C105.128 212.036 105.351 211.228 105.768 210.516C106.154 209.862 106.717 209.332 107.393 208.986C108.093 208.629 108.873 208.458 109.659 208.489C110.486 208.494 111.295 208.737 111.989 209.189C112.656 209.638 113.182 210.267 113.505 211.003C113.844 211.818 114.007 212.695 113.982 213.577C113.958 214.46 113.746 215.327 113.36 216.121L113.35 216.136Z" fill="white"/>
<path d="M98.7468 208.166C98.3569 207.461 97.8114 206.854 97.1518 206.392C96.381 205.862 95.5017 205.51 94.5779 205.363C93.7109 205.184 92.8164 205.184 91.9494 205.363C91.1841 205.522 90.4683 205.863 89.8624 206.357C89.2596 206.864 88.7976 207.518 88.5208 208.255L90.1109 208.548C90.4145 207.896 90.944 207.375 91.6015 207.082C92.432 206.771 93.3308 206.687 94.2045 206.84C95.0783 206.993 95.8952 207.377 96.5704 207.952C97.1282 208.512 97.5084 209.224 97.6636 209.999C97.8158 210.747 97.831 211.517 97.7083 212.27L87.86 210.436L87.696 211.321C87.5067 212.289 87.5458 213.287 87.8103 214.238C88.0746 215.185 88.5896 216.043 89.3009 216.722C90.1317 217.481 91.1695 217.976 92.2823 218.143C93.1659 218.329 94.0802 218.31 94.9555 218.088C95.7224 217.888 96.4352 217.52 97.0425 217.01C97.6388 216.513 98.1318 215.904 98.4934 215.216C98.862 214.527 99.1218 213.784 99.2636 213.015L99.3232 212.697C99.472 211.921 99.4972 211.126 99.3977 210.342C99.3189 209.582 99.0981 208.844 98.7468 208.166ZM96.7891 214.968C96.3669 215.616 95.7712 216.133 95.0698 216.459C94.2937 216.789 93.4333 216.867 92.6102 216.682C91.8204 216.563 91.0818 216.218 90.4835 215.688C89.9574 215.19 89.5879 214.55 89.4202 213.845C89.2785 213.267 89.2382 212.668 89.3009 212.076L97.445 213.582C97.289 214.071 97.0684 214.537 96.7891 214.968Z" fill="white"/>
<path d="M78.6128 201.279L74.439 212.742L76.0439 213.328L77.8874 213.994L78.3594 212.697L76.516 212.027L80.2178 201.865L78.6128 201.279Z" fill="white"/>
<path d="M74.9261 215.326C74.7703 215.254 74.6008 215.216 74.4292 215.216C74.2576 215.216 74.088 215.254 73.9323 215.326C73.6628 215.477 73.4592 215.723 73.3609 216.016C73.2489 216.304 73.2489 216.623 73.3609 216.911C73.4341 217.064 73.5395 217.199 73.6699 217.307C73.8003 217.415 73.9525 217.493 74.1161 217.537C74.2721 217.608 74.4416 217.645 74.613 217.645C74.7845 217.645 74.9539 217.608 75.1099 217.537C75.2471 217.468 75.3692 217.372 75.4691 217.255C75.5689 217.138 75.6444 217.003 75.6913 216.856C75.8081 216.568 75.8081 216.245 75.6913 215.957C75.6154 215.804 75.508 215.668 75.3761 215.559C75.2443 215.451 75.0909 215.371 74.9261 215.326Z" fill="white"/>
<path d="M72.9779 199.003L69.7332 205.577C69.5388 206.02 69.2575 206.42 68.9059 206.753C68.5543 207.086 68.1395 207.345 67.6861 207.515C67.2324 207.666 66.7525 207.722 66.2763 207.679C65.8001 207.636 65.3379 207.496 64.9184 207.266C64.5001 207.089 64.1255 206.822 63.8209 206.485C63.5162 206.147 63.2888 205.748 63.1544 205.313C62.9231 204.407 63.0476 203.447 63.5023 202.63L66.7966 195.952L65.2662 195.197L62.1358 201.547C61.3673 203.104 61.1072 204.48 61.3557 205.676C61.6041 206.872 62.419 207.809 63.8004 208.489L63.86 208.518C64.653 208.948 65.5556 209.133 66.4538 209.05C67.2748 208.942 68.043 208.584 68.655 208.026C68.8312 207.872 68.9972 207.706 69.1519 207.53L67.8898 210.103L69.132 210.72L74.5332 199.788L72.9779 199.003Z" fill="white"/>
<path d="M55.9445 189.095L49.3011 183.927L48.3222 185.185L54.6427 190.099L50.8464 194.978L45.1471 190.546L44.1881 191.783L49.8874 196.216L46.2601 200.876L40.1434 196.121L39.1646 197.373L45.6142 202.387L46.6676 203.207L57.0029 189.92L55.9445 189.095Z" fill="white"/>
<path d="M39.4229 190.188L38.2503 188.857L46.4291 181.672L45.3459 180.424L37.172 187.609L33.1075 182.983L41.2714 175.818L40.1732 174.571L31.9944 181.736L29.5895 178.998L28.5957 179.868L31.0007 182.606L29.9572 183.515C29.7731 183.699 29.5536 183.845 29.312 183.942C29.0703 184.039 28.8115 184.087 28.551 184.082C28.2846 184.049 28.0274 183.964 27.7945 183.831C27.5615 183.698 27.3575 183.519 27.1945 183.306L26.0666 182.024L24.9585 183.018L25.8728 184.057C26.7473 185.05 27.6334 185.592 28.5311 185.682C29.4305 185.776 30.3547 185.398 31.3137 184.559L32.0938 183.873L36.1584 188.499L35.0155 189.493C34.8299 189.676 34.6093 189.82 34.3669 189.917C34.1245 190.013 33.8652 190.06 33.6044 190.054C33.3385 190.023 33.0817 189.938 32.8495 189.805C32.6172 189.671 32.4143 189.493 32.2528 189.279L31.1696 188.052L30.0615 189.045L30.9311 190.039C31.8007 191.033 32.6901 191.575 33.5845 191.669C34.4789 191.763 35.4131 191.381 36.372 190.541L37.2565 189.766L38.4292 191.098L39.4229 190.188Z" fill="white"/>
<path d="M23.7015 178.218C23.3924 178.219 23.0955 178.338 22.8716 178.551C22.6326 178.747 22.4764 179.025 22.4344 179.331C22.4251 179.5 22.4523 179.668 22.514 179.825C22.5758 179.982 22.6706 180.124 22.7921 180.241C22.8942 180.38 23.0244 180.496 23.1742 180.581C23.324 180.667 23.4901 180.72 23.6617 180.737C23.9722 180.744 24.2731 180.63 24.5014 180.419C24.7418 180.222 24.8953 179.939 24.9288 179.629C24.9354 179.458 24.9061 179.288 24.8427 179.128C24.7794 178.969 24.6835 178.825 24.5611 178.705C24.4616 178.567 24.3332 178.451 24.1848 178.367C24.0364 178.283 23.8715 178.232 23.7015 178.218Z" fill="white"/>
<path d="M34.5386 168.141L26.4145 175.281L25.376 176.196L26.5039 177.478L27.7511 178.894L28.7896 177.984L27.5424 176.563L35.6666 169.423L34.5386 168.141Z" fill="white"/>
<path d="M25.3759 169.478C26.1379 169.302 26.8685 169.01 27.5423 168.613L27.8206 168.449C28.5054 168.053 29.1226 167.55 29.6491 166.959C30.172 166.378 30.58 165.704 30.8516 164.971C31.1288 164.216 31.229 163.406 31.1448 162.606C31.0373 161.676 30.7251 160.782 30.2305 159.987C29.795 159.214 29.2067 158.538 28.5013 158C27.8763 157.528 27.1468 157.215 26.3746 157.086C25.5968 156.963 24.8005 157.045 24.0641 157.324L24.884 158.71C25.5794 158.529 26.317 158.605 26.961 158.924C27.7478 159.343 28.4066 159.967 28.8676 160.729C29.3286 161.492 29.5746 162.366 29.5796 163.257C29.5284 164.046 29.2429 164.802 28.7597 165.428C28.2918 166.033 27.7196 166.55 27.0703 166.954L21.9921 158.303L21.2169 158.76C20.3652 159.251 19.6376 159.931 19.0902 160.748C18.5449 161.57 18.2324 162.525 18.1859 163.51C18.1575 164.636 18.4654 165.745 19.0703 166.695C19.5091 167.487 20.1247 168.168 20.8691 168.683C21.5239 169.129 22.2685 169.426 23.0504 169.552C23.8232 169.677 24.6126 169.651 25.3759 169.478ZM20.407 165.94C19.9783 165.266 19.7539 164.483 19.761 163.684C19.7933 162.961 20.0331 162.262 20.4517 161.672C20.7951 161.185 21.2185 160.76 21.7039 160.415L25.9075 167.555C25.4316 167.758 24.93 167.895 24.4169 167.962C23.6516 168.07 22.8716 167.959 22.166 167.644C21.4157 167.273 20.7994 166.677 20.402 165.94H20.407Z" fill="white"/>
<path d="M22.871 145.431L7.15771 151.472L7.78716 153.11L23.5005 147.068L22.871 145.431Z" fill="white"/>
<path d="M9.40615 144.092L21.2073 141.006L20.77 139.332L13.6744 141.19C13.2121 141.333 12.7259 141.381 12.2445 141.333C11.7631 141.284 11.2963 141.139 10.872 140.907C10.4606 140.663 10.1039 140.336 9.82438 139.948C9.5448 139.56 9.3483 139.118 9.24715 138.651C9.1124 138.222 9.0715 137.77 9.12723 137.324C9.18296 136.878 9.33402 136.449 9.57013 136.067C10.104 135.3 10.9112 134.767 11.826 134.576L19.011 132.663L18.5787 131.009L11.7316 132.803C10.0521 133.24 8.8397 133.95 8.09933 134.919C7.35897 135.888 7.18506 137.121 7.60245 138.611V138.676C7.79639 139.556 8.24783 140.359 8.89933 140.981C9.51744 141.531 10.2892 141.878 11.1105 141.975C11.3492 142.009 11.5899 142.027 11.831 142.03L9.07324 142.755L9.40615 144.092Z" fill="white"/>
<path d="M11.7167 128.703L12.0347 128.673C12.862 128.595 13.6683 128.368 14.4148 128.002C15.1312 127.655 15.7753 127.174 16.3129 126.586C16.8523 126.004 17.2636 125.315 17.5203 124.564C17.7846 123.764 17.871 122.916 17.7737 122.08C17.6902 121.139 17.3743 120.234 16.8545 119.446C16.3263 118.669 15.5865 118.061 14.7228 117.692C14.5511 117.619 14.3753 117.556 14.1961 117.503L16.8893 117.23L16.7501 115.854L0 117.543L0.173912 119.267L6.95645 118.581C6.18936 119.099 5.58189 119.82 5.20243 120.663C4.83083 121.539 4.69547 122.497 4.80989 123.441C4.8788 124.256 5.12484 125.046 5.5308 125.755C5.93676 126.465 6.49284 127.078 7.16018 127.55C7.80468 128.011 8.52919 128.348 9.2968 128.544C10.0878 128.739 10.907 128.793 11.7167 128.703ZM7.18999 125.324C6.6729 124.668 6.36324 123.872 6.30056 123.039C6.20706 122.252 6.31831 121.454 6.62354 120.723C6.91253 120.034 7.3852 119.438 7.98998 118.999C8.63557 118.531 9.39659 118.247 10.1912 118.179L11.2943 118.065C12.1133 117.967 12.9438 118.083 13.7042 118.403C14.4015 118.701 15.0008 119.19 15.4334 119.814C15.8727 120.463 16.1394 121.214 16.2085 121.995C16.3099 122.818 16.1737 123.652 15.816 124.4C15.4599 125.121 14.9047 125.724 14.216 126.139C13.452 126.581 12.6034 126.856 11.7257 126.946C10.848 127.037 9.96106 126.942 9.12289 126.666C8.36788 126.404 7.69927 125.94 7.18999 125.324Z" fill="white"/>
<path d="M6.09173 110.691C6.67143 111.215 7.3461 111.623 8.07929 111.893C8.8098 112.174 9.57891 112.342 10.36 112.39H10.683C11.4722 112.435 12.2635 112.356 13.0283 112.157C13.7842 111.962 14.496 111.625 15.1252 111.163C15.7725 110.685 16.3026 110.067 16.6755 109.354C17.1002 108.52 17.3344 107.602 17.3612 106.666C17.4234 105.782 17.305 104.894 17.0134 104.057C16.7472 103.321 16.3115 102.657 15.7413 102.12C15.159 101.59 14.4508 101.219 13.6842 101.041L13.5997 102.656C14.291 102.878 14.8776 103.344 15.2494 103.968C15.7216 104.753 15.9289 105.67 15.8407 106.582C15.8271 107.459 15.5463 108.312 15.0357 109.026C14.5562 109.654 13.9006 110.124 13.1525 110.378C12.4311 110.629 11.6699 110.745 10.9066 110.721L11.4333 100.718L10.5339 100.669C9.54957 100.613 8.56544 100.783 7.65693 101.166C6.74718 101.551 5.95899 102.176 5.37621 102.974C4.73972 103.901 4.39374 104.996 4.38243 106.12C4.31732 107.02 4.45485 107.923 4.78491 108.763C5.07695 109.492 5.52267 110.15 6.09173 110.691ZM6.58862 103.963C7.01413 103.378 7.59885 102.928 8.27308 102.666C8.82833 102.45 9.41657 102.331 10.0122 102.313L9.56996 110.587C9.06541 110.496 8.57557 110.338 8.11407 110.115C7.41836 109.788 6.82923 109.271 6.41471 108.624C5.98388 107.9 5.79422 107.058 5.8731 106.219C5.88581 105.413 6.13458 104.629 6.58862 103.963Z" fill="white"/>
<path d="M17.4655 99.5109L17.7984 97.7619L13.391 93.2303L13.4456 92.9321L19.2493 90.244L19.6021 88.3906L12.4668 91.6998L7.48296 86.8303L7.14508 88.5744L11.2742 92.4949L11.2146 92.8079L5.89292 95.0737L5.53516 96.9321L12.1935 94.0551L17.4655 99.5109Z" fill="white"/>
<path d="M22.9013 72.977L18.797 71.541L17.1274 72.8081L17.3461 77.141L18.9659 76.9323L18.3349 73.4988L19.1448 72.8975L22.2255 74.4925L22.9013 72.977Z" fill="white"/>
<path d="M15.1996 72.152L12.2729 74.0601L13.2369 75.3768L16.5114 72.5445L16.2778 70.4576L12.4319 68.48L11.7959 70.0154L15.0754 71.1483L15.1996 72.152Z" fill="white"/>
<path d="M18.693 70.9696L22.3352 68.6193L21.3514 67.2926L18.7079 69.5932L17.7737 69.1957L17.6197 65.6926L15.98 65.8914L16.7849 70.1497L18.693 70.9696Z" fill="white"/>
</svg>
