<svg width="360" height="522" viewBox="0 0 360 522" fill="none" xmlns="http://www.w3.org/2000/svg">
<path d="M15.2738 379.653L53.4452 263.061L91.6166 379.653H15.2738ZM121.49 146.206H-13.6203L-152 522H-31.2953L-12.3258 464.438H119.067L138.003 522H259.256L121.49 146.206Z" fill="#252525"/>
<path d="M473.463 187.131C446.677 160.369 408.738 146.206 363.712 146.206H198.396V522H313.541V426.695H363.712C419.409 426.695 454.112 402.209 473.397 381.665C498.03 355.283 511.805 320.679 512 284.694C512 246.589 498.324 211.946 473.463 187.131ZM350.169 337.574H313.541V236.992H350.169C378.001 236.992 395.212 261.726 395.212 284.81C395.212 306.311 379.18 337.574 350.169 337.574Z" fill="#252525"/>
</svg>
